<mxfile host="app.diagrams.net" modified="2021-09-21T07:09:29.305Z" agent="5.0 (Windows NT 10.0; Win64; x64) AppleWebKit/537.36 (KHTML, like Gecko) Chrome/93.0.4577.82 Safari/537.36" etag="zzlmns1FPMiTvTgU68G5" version="14.4.8" type="github">
  <diagram id="tkSsvwyT-QKNX5b_GbQI" name="第 1 页">
    <mxGraphModel dx="1662" dy="706" grid="1" gridSize="10" guides="1" tooltips="1" connect="1" arrows="1" fold="1" page="1" pageScale="1" pageWidth="827" pageHeight="1169" math="0" shadow="0">
      <root>
        <mxCell id="0" />
        <mxCell id="1" parent="0" />
        <mxCell id="td2FWiPlg4FryS3ejVmA-80" value="" style="shape=cube;whiteSpace=wrap;html=1;boundedLbl=1;backgroundOutline=1;darkOpacity=0.05;darkOpacity2=0.1;" parent="1" vertex="1">
          <mxGeometry x="540" y="320" width="40" height="60" as="geometry" />
        </mxCell>
        <mxCell id="td2FWiPlg4FryS3ejVmA-81" value="" style="shape=cube;whiteSpace=wrap;html=1;boundedLbl=1;backgroundOutline=1;darkOpacity=0.05;darkOpacity2=0.1;" parent="1" vertex="1">
          <mxGeometry x="510" y="320" width="40" height="60" as="geometry" />
        </mxCell>
        <mxCell id="td2FWiPlg4FryS3ejVmA-82" value="" style="shape=cylinder3;whiteSpace=wrap;html=1;boundedLbl=1;backgroundOutline=1;size=15;" parent="1" vertex="1">
          <mxGeometry x="480" y="196.66000000000003" width="50" height="41.67" as="geometry" />
        </mxCell>
        <mxCell id="td2FWiPlg4FryS3ejVmA-83" value="" style="shape=cube;whiteSpace=wrap;html=1;boundedLbl=1;backgroundOutline=1;darkOpacity=0.05;darkOpacity2=0.1;" parent="1" vertex="1">
          <mxGeometry x="480" y="320" width="40" height="60" as="geometry" />
        </mxCell>
        <mxCell id="td2FWiPlg4FryS3ejVmA-84" value="" style="shape=cube;whiteSpace=wrap;html=1;boundedLbl=1;backgroundOutline=1;darkOpacity=0.05;darkOpacity2=0.1;" parent="1" vertex="1">
          <mxGeometry x="450" y="320" width="40" height="60" as="geometry" />
        </mxCell>
        <mxCell id="td2FWiPlg4FryS3ejVmA-85" value="" style="endArrow=none;html=1;exitX=0;exitY=0;exitDx=10;exitDy=0;exitPerimeter=0;entryX=0.145;entryY=1;entryDx=0;entryDy=-4.35;entryPerimeter=0;" parent="1" source="td2FWiPlg4FryS3ejVmA-84" target="td2FWiPlg4FryS3ejVmA-82" edge="1">
          <mxGeometry width="50" height="50" relative="1" as="geometry">
            <mxPoint x="760" y="420" as="sourcePoint" />
            <mxPoint x="810" y="370" as="targetPoint" />
          </mxGeometry>
        </mxCell>
        <mxCell id="td2FWiPlg4FryS3ejVmA-86" value="" style="endArrow=none;html=1;exitX=0;exitY=0;exitDx=10;exitDy=0;exitPerimeter=0;entryX=0.38;entryY=1.016;entryDx=0;entryDy=0;entryPerimeter=0;" parent="1" source="td2FWiPlg4FryS3ejVmA-83" target="td2FWiPlg4FryS3ejVmA-82" edge="1">
          <mxGeometry width="50" height="50" relative="1" as="geometry">
            <mxPoint x="470" y="330" as="sourcePoint" />
            <mxPoint x="535" y="180" as="targetPoint" />
          </mxGeometry>
        </mxCell>
        <mxCell id="td2FWiPlg4FryS3ejVmA-87" value="" style="endArrow=none;html=1;exitX=0;exitY=0;exitDx=10;exitDy=0;exitPerimeter=0;" parent="1" source="td2FWiPlg4FryS3ejVmA-81" target="td2FWiPlg4FryS3ejVmA-82" edge="1">
          <mxGeometry width="50" height="50" relative="1" as="geometry">
            <mxPoint x="500" y="330" as="sourcePoint" />
            <mxPoint x="535" y="180" as="targetPoint" />
          </mxGeometry>
        </mxCell>
        <mxCell id="td2FWiPlg4FryS3ejVmA-88" value="" style="endArrow=none;html=1;exitX=0;exitY=0;exitDx=10;exitDy=0;exitPerimeter=0;entryX=0.855;entryY=1;entryDx=0;entryDy=-4.35;entryPerimeter=0;" parent="1" source="td2FWiPlg4FryS3ejVmA-80" target="td2FWiPlg4FryS3ejVmA-82" edge="1">
          <mxGeometry width="50" height="50" relative="1" as="geometry">
            <mxPoint x="510" y="340" as="sourcePoint" />
            <mxPoint x="545" y="190" as="targetPoint" />
          </mxGeometry>
        </mxCell>
        <mxCell id="td2FWiPlg4FryS3ejVmA-71" value="" style="shape=cube;whiteSpace=wrap;html=1;boundedLbl=1;backgroundOutline=1;darkOpacity=0.05;darkOpacity2=0.1;" parent="1" vertex="1">
          <mxGeometry x="420" y="320" width="40" height="60" as="geometry" />
        </mxCell>
        <mxCell id="td2FWiPlg4FryS3ejVmA-72" value="" style="shape=cube;whiteSpace=wrap;html=1;boundedLbl=1;backgroundOutline=1;darkOpacity=0.05;darkOpacity2=0.1;" parent="1" vertex="1">
          <mxGeometry x="390" y="320" width="40" height="60" as="geometry" />
        </mxCell>
        <mxCell id="td2FWiPlg4FryS3ejVmA-74" value="" style="shape=cube;whiteSpace=wrap;html=1;boundedLbl=1;backgroundOutline=1;darkOpacity=0.05;darkOpacity2=0.1;" parent="1" vertex="1">
          <mxGeometry x="360" y="320" width="40" height="60" as="geometry" />
        </mxCell>
        <mxCell id="td2FWiPlg4FryS3ejVmA-75" value="" style="shape=cube;whiteSpace=wrap;html=1;boundedLbl=1;backgroundOutline=1;darkOpacity=0.05;darkOpacity2=0.1;" parent="1" vertex="1">
          <mxGeometry x="330" y="320" width="40" height="60" as="geometry" />
        </mxCell>
        <mxCell id="td2FWiPlg4FryS3ejVmA-76" value="" style="endArrow=none;html=1;exitX=0;exitY=0;exitDx=10;exitDy=0;exitPerimeter=0;entryX=0.145;entryY=1;entryDx=0;entryDy=-4.35;entryPerimeter=0;" parent="1" source="td2FWiPlg4FryS3ejVmA-75" target="td2FWiPlg4FryS3ejVmA-73" edge="1">
          <mxGeometry width="50" height="50" relative="1" as="geometry">
            <mxPoint x="640" y="420" as="sourcePoint" />
            <mxPoint x="390" y="238" as="targetPoint" />
          </mxGeometry>
        </mxCell>
        <mxCell id="td2FWiPlg4FryS3ejVmA-77" value="" style="endArrow=none;html=1;exitX=0;exitY=0;exitDx=10;exitDy=0;exitPerimeter=0;entryX=0.3;entryY=1;entryDx=0;entryDy=0;entryPerimeter=0;" parent="1" source="td2FWiPlg4FryS3ejVmA-74" target="td2FWiPlg4FryS3ejVmA-73" edge="1">
          <mxGeometry width="50" height="50" relative="1" as="geometry">
            <mxPoint x="350" y="330" as="sourcePoint" />
            <mxPoint x="415" y="180" as="targetPoint" />
          </mxGeometry>
        </mxCell>
        <mxCell id="td2FWiPlg4FryS3ejVmA-78" value="" style="endArrow=none;html=1;exitX=0;exitY=0;exitDx=10;exitDy=0;exitPerimeter=0;" parent="1" source="td2FWiPlg4FryS3ejVmA-72" target="td2FWiPlg4FryS3ejVmA-73" edge="1">
          <mxGeometry width="50" height="50" relative="1" as="geometry">
            <mxPoint x="380" y="330" as="sourcePoint" />
            <mxPoint x="415" y="180" as="targetPoint" />
          </mxGeometry>
        </mxCell>
        <mxCell id="td2FWiPlg4FryS3ejVmA-79" value="" style="endArrow=none;html=1;exitX=0;exitY=0;exitDx=10;exitDy=0;exitPerimeter=0;" parent="1" source="td2FWiPlg4FryS3ejVmA-71" edge="1">
          <mxGeometry width="50" height="50" relative="1" as="geometry">
            <mxPoint x="390" y="340" as="sourcePoint" />
            <mxPoint x="410" y="238" as="targetPoint" />
          </mxGeometry>
        </mxCell>
        <mxCell id="td2FWiPlg4FryS3ejVmA-3" value="" style="shape=cylinder3;whiteSpace=wrap;html=1;boundedLbl=1;backgroundOutline=1;size=15;" parent="1" vertex="1">
          <mxGeometry x="240" y="90" width="50" height="41.67" as="geometry" />
        </mxCell>
        <mxCell id="td2FWiPlg4FryS3ejVmA-19" value="" style="shape=cylinder3;whiteSpace=wrap;html=1;boundedLbl=1;backgroundOutline=1;size=15;" parent="1" vertex="1">
          <mxGeometry x="115" y="90" width="50" height="41.67" as="geometry" />
        </mxCell>
        <mxCell id="td2FWiPlg4FryS3ejVmA-62" value="" style="shape=cube;whiteSpace=wrap;html=1;boundedLbl=1;backgroundOutline=1;darkOpacity=0.05;darkOpacity2=0.1;" parent="1" vertex="1">
          <mxGeometry x="300" y="320" width="40" height="60" as="geometry" />
        </mxCell>
        <mxCell id="td2FWiPlg4FryS3ejVmA-63" value="" style="shape=cube;whiteSpace=wrap;html=1;boundedLbl=1;backgroundOutline=1;darkOpacity=0.05;darkOpacity2=0.1;" parent="1" vertex="1">
          <mxGeometry x="270" y="320" width="40" height="60" as="geometry" />
        </mxCell>
        <mxCell id="td2FWiPlg4FryS3ejVmA-65" value="" style="shape=cube;whiteSpace=wrap;html=1;boundedLbl=1;backgroundOutline=1;darkOpacity=0.05;darkOpacity2=0.1;" parent="1" vertex="1">
          <mxGeometry x="240" y="320" width="40" height="60" as="geometry" />
        </mxCell>
        <mxCell id="td2FWiPlg4FryS3ejVmA-66" value="" style="shape=cube;whiteSpace=wrap;html=1;boundedLbl=1;backgroundOutline=1;darkOpacity=0.05;darkOpacity2=0.1;" parent="1" vertex="1">
          <mxGeometry x="210" y="320" width="40" height="60" as="geometry" />
        </mxCell>
        <mxCell id="td2FWiPlg4FryS3ejVmA-67" value="" style="endArrow=none;html=1;exitX=0;exitY=0;exitDx=10;exitDy=0;exitPerimeter=0;" parent="1" source="td2FWiPlg4FryS3ejVmA-66" edge="1">
          <mxGeometry width="50" height="50" relative="1" as="geometry">
            <mxPoint x="520" y="420" as="sourcePoint" />
            <mxPoint x="260" y="238" as="targetPoint" />
          </mxGeometry>
        </mxCell>
        <mxCell id="td2FWiPlg4FryS3ejVmA-68" value="" style="endArrow=none;html=1;exitX=0;exitY=0;exitDx=10;exitDy=0;exitPerimeter=0;entryX=0.5;entryY=1;entryDx=0;entryDy=0;entryPerimeter=0;" parent="1" source="td2FWiPlg4FryS3ejVmA-65" target="td2FWiPlg4FryS3ejVmA-64" edge="1">
          <mxGeometry width="50" height="50" relative="1" as="geometry">
            <mxPoint x="230" y="330" as="sourcePoint" />
            <mxPoint x="295" y="180" as="targetPoint" />
          </mxGeometry>
        </mxCell>
        <mxCell id="td2FWiPlg4FryS3ejVmA-69" value="" style="endArrow=none;html=1;exitX=0;exitY=0;exitDx=10;exitDy=0;exitPerimeter=0;" parent="1" source="td2FWiPlg4FryS3ejVmA-63" edge="1">
          <mxGeometry width="50" height="50" relative="1" as="geometry">
            <mxPoint x="260" y="330" as="sourcePoint" />
            <mxPoint x="280" y="238" as="targetPoint" />
          </mxGeometry>
        </mxCell>
        <mxCell id="td2FWiPlg4FryS3ejVmA-70" value="" style="endArrow=none;html=1;exitX=0;exitY=0;exitDx=10;exitDy=0;exitPerimeter=0;entryX=0.855;entryY=1;entryDx=0;entryDy=-4.35;entryPerimeter=0;" parent="1" source="td2FWiPlg4FryS3ejVmA-62" target="td2FWiPlg4FryS3ejVmA-64" edge="1">
          <mxGeometry width="50" height="50" relative="1" as="geometry">
            <mxPoint x="270" y="340" as="sourcePoint" />
            <mxPoint x="305" y="190" as="targetPoint" />
          </mxGeometry>
        </mxCell>
        <mxCell id="td2FWiPlg4FryS3ejVmA-32" value="" style="shape=cube;whiteSpace=wrap;html=1;boundedLbl=1;backgroundOutline=1;darkOpacity=0.05;darkOpacity2=0.1;" parent="1" vertex="1">
          <mxGeometry x="175" y="320" width="40" height="60" as="geometry" />
        </mxCell>
        <mxCell id="td2FWiPlg4FryS3ejVmA-31" value="" style="shape=cube;whiteSpace=wrap;html=1;boundedLbl=1;backgroundOutline=1;darkOpacity=0.05;darkOpacity2=0.1;" parent="1" vertex="1">
          <mxGeometry x="145" y="320" width="40" height="60" as="geometry" />
        </mxCell>
        <mxCell id="td2FWiPlg4FryS3ejVmA-1" value="" style="shape=cylinder3;whiteSpace=wrap;html=1;boundedLbl=1;backgroundOutline=1;size=15;" parent="1" vertex="1">
          <mxGeometry x="120" y="196.66000000000003" width="50" height="41.67" as="geometry" />
        </mxCell>
        <mxCell id="td2FWiPlg4FryS3ejVmA-23" value="" style="shape=cube;whiteSpace=wrap;html=1;boundedLbl=1;backgroundOutline=1;darkOpacity=0.05;darkOpacity2=0.1;" parent="1" vertex="1">
          <mxGeometry x="115" y="320" width="40" height="60" as="geometry" />
        </mxCell>
        <mxCell id="td2FWiPlg4FryS3ejVmA-33" value="" style="shape=cube;whiteSpace=wrap;html=1;boundedLbl=1;backgroundOutline=1;darkOpacity=0.05;darkOpacity2=0.1;" parent="1" vertex="1">
          <mxGeometry x="85" y="320" width="40" height="60" as="geometry" />
        </mxCell>
        <mxCell id="td2FWiPlg4FryS3ejVmA-48" value="" style="endArrow=none;html=1;exitX=0;exitY=0;exitDx=10;exitDy=0;exitPerimeter=0;entryX=0.145;entryY=1;entryDx=0;entryDy=-4.35;entryPerimeter=0;" parent="1" source="td2FWiPlg4FryS3ejVmA-33" target="td2FWiPlg4FryS3ejVmA-1" edge="1">
          <mxGeometry width="50" height="50" relative="1" as="geometry">
            <mxPoint x="395" y="420" as="sourcePoint" />
            <mxPoint x="445" y="370" as="targetPoint" />
          </mxGeometry>
        </mxCell>
        <mxCell id="td2FWiPlg4FryS3ejVmA-49" value="" style="endArrow=none;html=1;exitX=0;exitY=0;exitDx=10;exitDy=0;exitPerimeter=0;entryX=0.36;entryY=1.064;entryDx=0;entryDy=0;entryPerimeter=0;" parent="1" source="td2FWiPlg4FryS3ejVmA-23" target="td2FWiPlg4FryS3ejVmA-1" edge="1">
          <mxGeometry width="50" height="50" relative="1" as="geometry">
            <mxPoint x="105" y="330" as="sourcePoint" />
            <mxPoint x="170" y="180" as="targetPoint" />
          </mxGeometry>
        </mxCell>
        <mxCell id="td2FWiPlg4FryS3ejVmA-51" value="" style="endArrow=none;html=1;exitX=0;exitY=0;exitDx=10;exitDy=0;exitPerimeter=0;" parent="1" source="td2FWiPlg4FryS3ejVmA-31" target="td2FWiPlg4FryS3ejVmA-1" edge="1">
          <mxGeometry width="50" height="50" relative="1" as="geometry">
            <mxPoint x="135" y="330" as="sourcePoint" />
            <mxPoint x="170" y="180" as="targetPoint" />
          </mxGeometry>
        </mxCell>
        <mxCell id="td2FWiPlg4FryS3ejVmA-52" value="" style="endArrow=none;html=1;exitX=0;exitY=0;exitDx=10;exitDy=0;exitPerimeter=0;entryX=0.855;entryY=1;entryDx=0;entryDy=-4.35;entryPerimeter=0;" parent="1" source="td2FWiPlg4FryS3ejVmA-32" target="td2FWiPlg4FryS3ejVmA-1" edge="1">
          <mxGeometry width="50" height="50" relative="1" as="geometry">
            <mxPoint x="145" y="340" as="sourcePoint" />
            <mxPoint x="180" y="190" as="targetPoint" />
          </mxGeometry>
        </mxCell>
        <mxCell id="td2FWiPlg4FryS3ejVmA-89" value="" style="endArrow=none;html=1;exitX=0;exitY=0;exitDx=10;exitDy=0;exitPerimeter=0;entryX=0.3;entryY=1.032;entryDx=0;entryDy=0;entryPerimeter=0;" parent="1" source="td2FWiPlg4FryS3ejVmA-33" target="td2FWiPlg4FryS3ejVmA-19" edge="1">
          <mxGeometry width="50" height="50" relative="1" as="geometry">
            <mxPoint x="105" y="330" as="sourcePoint" />
            <mxPoint x="155" y="248.33000000000004" as="targetPoint" />
          </mxGeometry>
        </mxCell>
        <mxCell id="td2FWiPlg4FryS3ejVmA-90" value="" style="endArrow=none;html=1;exitX=0;exitY=0;exitDx=10;exitDy=0;exitPerimeter=0;" parent="1" source="td2FWiPlg4FryS3ejVmA-66" edge="1">
          <mxGeometry width="50" height="50" relative="1" as="geometry">
            <mxPoint x="115" y="340" as="sourcePoint" />
            <mxPoint x="140" y="132" as="targetPoint" />
          </mxGeometry>
        </mxCell>
        <mxCell id="td2FWiPlg4FryS3ejVmA-91" value="" style="endArrow=none;html=1;exitX=0;exitY=0;exitDx=10;exitDy=0;exitPerimeter=0;" parent="1" source="td2FWiPlg4FryS3ejVmA-75" edge="1">
          <mxGeometry width="50" height="50" relative="1" as="geometry">
            <mxPoint x="125" y="350" as="sourcePoint" />
            <mxPoint x="150" y="132" as="targetPoint" />
          </mxGeometry>
        </mxCell>
        <mxCell id="td2FWiPlg4FryS3ejVmA-92" value="" style="endArrow=none;html=1;exitX=0;exitY=0;exitDx=10;exitDy=0;exitPerimeter=0;entryX=0.855;entryY=1;entryDx=0;entryDy=-4.35;entryPerimeter=0;" parent="1" source="td2FWiPlg4FryS3ejVmA-84" target="td2FWiPlg4FryS3ejVmA-19" edge="1">
          <mxGeometry width="50" height="50" relative="1" as="geometry">
            <mxPoint x="135" y="360" as="sourcePoint" />
            <mxPoint x="160" y="120" as="targetPoint" />
          </mxGeometry>
        </mxCell>
        <mxCell id="td2FWiPlg4FryS3ejVmA-93" value="" style="endArrow=none;html=1;exitX=0;exitY=0;exitDx=10;exitDy=0;exitPerimeter=0;entryX=0.145;entryY=1;entryDx=0;entryDy=-4.35;entryPerimeter=0;" parent="1" source="td2FWiPlg4FryS3ejVmA-23" target="td2FWiPlg4FryS3ejVmA-3" edge="1">
          <mxGeometry width="50" height="50" relative="1" as="geometry">
            <mxPoint x="145" y="370" as="sourcePoint" />
            <mxPoint x="195" y="288.33000000000004" as="targetPoint" />
          </mxGeometry>
        </mxCell>
        <mxCell id="td2FWiPlg4FryS3ejVmA-94" value="" style="endArrow=none;html=1;entryX=0.5;entryY=1;entryDx=0;entryDy=0;entryPerimeter=0;" parent="1" target="td2FWiPlg4FryS3ejVmA-3" edge="1">
          <mxGeometry width="50" height="50" relative="1" as="geometry">
            <mxPoint x="250" y="320" as="sourcePoint" />
            <mxPoint x="205" y="298.33000000000004" as="targetPoint" />
          </mxGeometry>
        </mxCell>
        <mxCell id="td2FWiPlg4FryS3ejVmA-95" value="" style="endArrow=none;html=1;exitX=0;exitY=0;exitDx=10;exitDy=0;exitPerimeter=0;entryX=0.855;entryY=1;entryDx=0;entryDy=-4.35;entryPerimeter=0;" parent="1" source="td2FWiPlg4FryS3ejVmA-74" target="td2FWiPlg4FryS3ejVmA-3" edge="1">
          <mxGeometry width="50" height="50" relative="1" as="geometry">
            <mxPoint x="165" y="390" as="sourcePoint" />
            <mxPoint x="215" y="308.33000000000004" as="targetPoint" />
          </mxGeometry>
        </mxCell>
        <mxCell id="td2FWiPlg4FryS3ejVmA-96" value="" style="endArrow=none;html=1;exitX=0;exitY=0;exitDx=10;exitDy=0;exitPerimeter=0;" parent="1" source="td2FWiPlg4FryS3ejVmA-83" edge="1">
          <mxGeometry width="50" height="50" relative="1" as="geometry">
            <mxPoint x="175" y="400" as="sourcePoint" />
            <mxPoint x="290" y="120" as="targetPoint" />
          </mxGeometry>
        </mxCell>
        <mxCell id="td2FWiPlg4FryS3ejVmA-97" value="" style="endArrow=none;html=1;exitX=0;exitY=0;exitDx=10;exitDy=0;exitPerimeter=0;entryX=0.145;entryY=1;entryDx=0;entryDy=-4.35;entryPerimeter=0;" parent="1" source="td2FWiPlg4FryS3ejVmA-31" target="td2FWiPlg4FryS3ejVmA-98" edge="1">
          <mxGeometry width="50" height="50" relative="1" as="geometry">
            <mxPoint x="330" y="211.67" as="sourcePoint" />
            <mxPoint x="380" y="130.00000000000003" as="targetPoint" />
          </mxGeometry>
        </mxCell>
        <mxCell id="td2FWiPlg4FryS3ejVmA-98" value="" style="shape=cylinder3;whiteSpace=wrap;html=1;boundedLbl=1;backgroundOutline=1;size=15;" parent="1" vertex="1">
          <mxGeometry x="360" y="90" width="50" height="41.67" as="geometry" />
        </mxCell>
        <mxCell id="td2FWiPlg4FryS3ejVmA-99" value="" style="shape=cylinder3;whiteSpace=wrap;html=1;boundedLbl=1;backgroundOutline=1;size=15;" parent="1" vertex="1">
          <mxGeometry x="475" y="90" width="50" height="41.67" as="geometry" />
        </mxCell>
        <mxCell id="td2FWiPlg4FryS3ejVmA-101" value="" style="endArrow=none;html=1;entryX=0.34;entryY=0.984;entryDx=0;entryDy=0;entryPerimeter=0;" parent="1" target="td2FWiPlg4FryS3ejVmA-98" edge="1">
          <mxGeometry width="50" height="50" relative="1" as="geometry">
            <mxPoint x="280" y="320" as="sourcePoint" />
            <mxPoint x="390" y="140" as="targetPoint" />
          </mxGeometry>
        </mxCell>
        <mxCell id="td2FWiPlg4FryS3ejVmA-102" value="" style="endArrow=none;html=1;exitX=0;exitY=0;exitDx=10;exitDy=0;exitPerimeter=0;entryX=0.66;entryY=1.032;entryDx=0;entryDy=0;entryPerimeter=0;" parent="1" source="td2FWiPlg4FryS3ejVmA-72" target="td2FWiPlg4FryS3ejVmA-98" edge="1">
          <mxGeometry width="50" height="50" relative="1" as="geometry">
            <mxPoint x="175" y="340" as="sourcePoint" />
            <mxPoint x="400" y="150" as="targetPoint" />
          </mxGeometry>
        </mxCell>
        <mxCell id="td2FWiPlg4FryS3ejVmA-103" value="" style="endArrow=none;html=1;exitX=0;exitY=0;exitDx=10;exitDy=0;exitPerimeter=0;entryX=0.855;entryY=1;entryDx=0;entryDy=-4.35;entryPerimeter=0;" parent="1" source="td2FWiPlg4FryS3ejVmA-81" target="td2FWiPlg4FryS3ejVmA-98" edge="1">
          <mxGeometry width="50" height="50" relative="1" as="geometry">
            <mxPoint x="185" y="350" as="sourcePoint" />
            <mxPoint x="410" y="160" as="targetPoint" />
          </mxGeometry>
        </mxCell>
        <mxCell id="td2FWiPlg4FryS3ejVmA-104" value="" style="endArrow=none;html=1;exitX=0;exitY=0;exitDx=10;exitDy=0;exitPerimeter=0;entryX=0.145;entryY=1;entryDx=0;entryDy=-4.35;entryPerimeter=0;" parent="1" source="td2FWiPlg4FryS3ejVmA-32" target="td2FWiPlg4FryS3ejVmA-99" edge="1">
          <mxGeometry width="50" height="50" relative="1" as="geometry">
            <mxPoint x="195" y="360" as="sourcePoint" />
            <mxPoint x="420" y="170" as="targetPoint" />
          </mxGeometry>
        </mxCell>
        <mxCell id="td2FWiPlg4FryS3ejVmA-105" value="" style="endArrow=none;html=1;exitX=0;exitY=0;exitDx=10;exitDy=0;exitPerimeter=0;entryX=0.3;entryY=0.984;entryDx=0;entryDy=0;entryPerimeter=0;" parent="1" source="td2FWiPlg4FryS3ejVmA-62" target="td2FWiPlg4FryS3ejVmA-99" edge="1">
          <mxGeometry width="50" height="50" relative="1" as="geometry">
            <mxPoint x="205" y="370" as="sourcePoint" />
            <mxPoint x="430" y="180" as="targetPoint" />
          </mxGeometry>
        </mxCell>
        <mxCell id="td2FWiPlg4FryS3ejVmA-106" value="" style="endArrow=none;html=1;exitX=0;exitY=0;exitDx=10;exitDy=0;exitPerimeter=0;entryX=0.5;entryY=0.96;entryDx=0;entryDy=0;entryPerimeter=0;" parent="1" source="td2FWiPlg4FryS3ejVmA-71" target="td2FWiPlg4FryS3ejVmA-99" edge="1">
          <mxGeometry width="50" height="50" relative="1" as="geometry">
            <mxPoint x="215" y="380" as="sourcePoint" />
            <mxPoint x="510" y="130" as="targetPoint" />
          </mxGeometry>
        </mxCell>
        <mxCell id="td2FWiPlg4FryS3ejVmA-107" value="" style="endArrow=none;html=1;exitX=0;exitY=0;exitDx=10;exitDy=0;exitPerimeter=0;entryX=0.855;entryY=1;entryDx=0;entryDy=-4.35;entryPerimeter=0;" parent="1" source="td2FWiPlg4FryS3ejVmA-80" target="td2FWiPlg4FryS3ejVmA-99" edge="1">
          <mxGeometry width="50" height="50" relative="1" as="geometry">
            <mxPoint x="225" y="390" as="sourcePoint" />
            <mxPoint x="450" y="200" as="targetPoint" />
          </mxGeometry>
        </mxCell>
        <mxCell id="td2FWiPlg4FryS3ejVmA-108" value="&lt;font style=&quot;font-size: 14px&quot;&gt;&lt;b&gt;s1&lt;/b&gt;&lt;/font&gt;" style="text;html=1;strokeColor=none;fillColor=none;align=center;verticalAlign=middle;whiteSpace=wrap;rounded=0;" parent="1" vertex="1">
          <mxGeometry x="125" y="200" width="40" height="20" as="geometry" />
        </mxCell>
        <mxCell id="td2FWiPlg4FryS3ejVmA-115" value="&lt;font style=&quot;font-size: 14px&quot;&gt;&lt;b&gt;s4&lt;/b&gt;&lt;/font&gt;&lt;span style=&quot;color: rgba(0 , 0 , 0 , 0) ; font-family: monospace ; font-size: 0px&quot;&gt;%3CmxGraphModel%3E%3Croot%3E%3CmxCell%20id%3D%220%22%2F%3E%3CmxCell%20id%3D%221%22%20parent%3D%220%22%2F%3E%3CmxCell%20id%3D%222%22%20value%3D%22%26lt%3Bfont%20style%3D%26quot%3Bfont-size%3A%2014px%26quot%3B%26gt%3B%26lt%3Bb%26gt%3Bs1%26lt%3B%2Fb%26gt%3B%26lt%3B%2Ffont%26gt%3B%22%20style%3D%22text%3Bhtml%3D1%3BstrokeColor%3Dnone%3BfillColor%3Dnone%3Balign%3Dcenter%3BverticalAlign%3Dmiddle%3BwhiteSpace%3Dwrap%3Brounded%3D0%3B%22%20vertex%3D%221%22%20parent%3D%221%22%3E%3CmxGeometry%20x%3D%22125%22%20y%3D%22200%22%20width%3D%2240%22%20height%3D%2220%22%20as%3D%22geometry%22%2F%3E%3C%2FmxCell%3E%3C%2Froot%3E%3C%2FmxGraphModel%3E&lt;/span&gt;" style="text;html=1;strokeColor=none;fillColor=none;align=center;verticalAlign=middle;whiteSpace=wrap;rounded=0;" parent="1" vertex="1">
          <mxGeometry x="485" y="200" width="40" height="20" as="geometry" />
        </mxCell>
        <mxCell id="td2FWiPlg4FryS3ejVmA-116" value="&lt;font style=&quot;font-size: 14px&quot;&gt;&lt;b&gt;s5&lt;/b&gt;&lt;/font&gt;" style="text;html=1;strokeColor=none;fillColor=none;align=center;verticalAlign=middle;whiteSpace=wrap;rounded=0;" parent="1" vertex="1">
          <mxGeometry x="120" y="94.84" width="40" height="20" as="geometry" />
        </mxCell>
        <mxCell id="td2FWiPlg4FryS3ejVmA-117" value="&lt;font style=&quot;font-size: 14px&quot;&gt;&lt;b&gt;s6&lt;/b&gt;&lt;/font&gt;" style="text;html=1;strokeColor=none;fillColor=none;align=center;verticalAlign=middle;whiteSpace=wrap;rounded=0;" parent="1" vertex="1">
          <mxGeometry x="245" y="94.84" width="40" height="20" as="geometry" />
        </mxCell>
        <mxCell id="td2FWiPlg4FryS3ejVmA-118" value="&lt;font style=&quot;font-size: 14px&quot;&gt;&lt;b&gt;s7&lt;/b&gt;&lt;/font&gt;&lt;span style=&quot;color: rgba(0 , 0 , 0 , 0) ; font-family: monospace ; font-size: 0px&quot;&gt;%3CmxGraphModel%3E%3Croot%3E%3CmxCell%20id%3D%220%22%2F%3E%3CmxCell%20id%3D%221%22%20parent%3D%220%22%2F%3E%3CmxCell%20id%3D%222%22%20value%3D%22%26lt%3Bfont%20style%3D%26quot%3Bfont-size%3A%2014px%26quot%3B%26gt%3B%26lt%3Bb%26gt%3Bs5%26lt%3B%2Fb%26gt%3B%26lt%3B%2Ffont%26gt%3B%22%20style%3D%22text%3Bhtml%3D1%3BstrokeColor%3Dnone%3BfillColor%3Dnone%3Balign%3Dcenter%3BverticalAlign%3Dmiddle%3BwhiteSpace%3Dwrap%3Brounded%3D0%3B%22%20vertex%3D%221%22%20parent%3D%221%22%3E%3CmxGeometry%20x%3D%22120%22%20y%3D%2294.84%22%20width%3D%2240%22%20height%3D%2220%22%20as%3D%22geometry%22%2F%3E%3C%2FmxCell%3E%3C%2Froot%3E%3C%2FmxGraphModel%3E&lt;/span&gt;" style="text;html=1;strokeColor=none;fillColor=none;align=center;verticalAlign=middle;whiteSpace=wrap;rounded=0;" parent="1" vertex="1">
          <mxGeometry x="365" y="94.84" width="40" height="20" as="geometry" />
        </mxCell>
        <mxCell id="td2FWiPlg4FryS3ejVmA-119" value="&lt;font style=&quot;font-size: 14px&quot;&gt;&lt;b&gt;s8&lt;/b&gt;&lt;/font&gt;" style="text;html=1;strokeColor=none;fillColor=none;align=center;verticalAlign=middle;whiteSpace=wrap;rounded=0;" parent="1" vertex="1">
          <mxGeometry x="480" y="94.84" width="40" height="20" as="geometry" />
        </mxCell>
        <mxCell id="td2FWiPlg4FryS3ejVmA-64" value="" style="shape=cylinder3;whiteSpace=wrap;html=1;boundedLbl=1;backgroundOutline=1;size=15;" parent="1" vertex="1">
          <mxGeometry x="245" y="196.66000000000003" width="50" height="41.67" as="geometry" />
        </mxCell>
        <mxCell id="td2FWiPlg4FryS3ejVmA-109" value="&lt;b&gt;&lt;font style=&quot;font-size: 14px&quot;&gt;s2&lt;/font&gt;&lt;/b&gt;" style="text;html=1;strokeColor=none;fillColor=none;align=center;verticalAlign=middle;whiteSpace=wrap;rounded=0;" parent="1" vertex="1">
          <mxGeometry x="250" y="200" width="40" height="20" as="geometry" />
        </mxCell>
        <mxCell id="td2FWiPlg4FryS3ejVmA-73" value="" style="shape=cylinder3;whiteSpace=wrap;html=1;boundedLbl=1;backgroundOutline=1;size=15;" parent="1" vertex="1">
          <mxGeometry x="365" y="196.66000000000003" width="50" height="41.67" as="geometry" />
        </mxCell>
        <mxCell id="td2FWiPlg4FryS3ejVmA-110" value="&lt;font style=&quot;font-size: 14px&quot;&gt;&lt;b&gt;s3&lt;/b&gt;&lt;/font&gt;" style="text;html=1;strokeColor=none;fillColor=none;align=center;verticalAlign=middle;whiteSpace=wrap;rounded=0;" parent="1" vertex="1">
          <mxGeometry x="369" y="203" width="40" height="20" as="geometry" />
        </mxCell>
        <mxCell id="td2FWiPlg4FryS3ejVmA-120" value="1" style="text;html=1;strokeColor=none;fillColor=none;align=center;verticalAlign=middle;whiteSpace=wrap;rounded=0;" parent="1" vertex="1">
          <mxGeometry x="100" y="131.67" width="40" height="20" as="geometry" />
        </mxCell>
        <mxCell id="td2FWiPlg4FryS3ejVmA-122" value="1" style="text;html=1;strokeColor=none;fillColor=none;align=center;verticalAlign=middle;whiteSpace=wrap;rounded=0;" parent="1" vertex="1">
          <mxGeometry x="100" y="230" width="40" height="20" as="geometry" />
        </mxCell>
        <mxCell id="td2FWiPlg4FryS3ejVmA-123" value="1" style="text;html=1;strokeColor=none;fillColor=none;align=center;verticalAlign=middle;whiteSpace=wrap;rounded=0;" parent="1" vertex="1">
          <mxGeometry x="215" y="119.99999999999999" width="40" height="20" as="geometry" />
        </mxCell>
        <mxCell id="td2FWiPlg4FryS3ejVmA-124" value="1" style="text;html=1;strokeColor=none;fillColor=none;align=center;verticalAlign=middle;whiteSpace=wrap;rounded=0;" parent="1" vertex="1">
          <mxGeometry x="340" y="119.99999999999999" width="40" height="20" as="geometry" />
        </mxCell>
        <mxCell id="td2FWiPlg4FryS3ejVmA-125" value="1" style="text;html=1;strokeColor=none;fillColor=none;align=center;verticalAlign=middle;whiteSpace=wrap;rounded=0;" parent="1" vertex="1">
          <mxGeometry x="445" y="114.83999999999999" width="40" height="20" as="geometry" />
        </mxCell>
        <mxCell id="td2FWiPlg4FryS3ejVmA-126" value="1" style="text;html=1;strokeColor=none;fillColor=none;align=center;verticalAlign=middle;whiteSpace=wrap;rounded=0;" parent="1" vertex="1">
          <mxGeometry x="220" y="230" width="40" height="20" as="geometry" />
        </mxCell>
        <mxCell id="td2FWiPlg4FryS3ejVmA-127" value="1" style="text;html=1;strokeColor=none;fillColor=none;align=center;verticalAlign=middle;whiteSpace=wrap;rounded=0;" parent="1" vertex="1">
          <mxGeometry x="340" y="223" width="40" height="20" as="geometry" />
        </mxCell>
        <mxCell id="td2FWiPlg4FryS3ejVmA-128" value="1" style="text;html=1;strokeColor=none;fillColor=none;align=center;verticalAlign=middle;whiteSpace=wrap;rounded=0;" parent="1" vertex="1">
          <mxGeometry x="460" y="230" width="40" height="20" as="geometry" />
        </mxCell>
        <mxCell id="td2FWiPlg4FryS3ejVmA-129" value="4" style="text;html=1;strokeColor=none;fillColor=none;align=center;verticalAlign=middle;whiteSpace=wrap;rounded=0;" parent="1" vertex="1">
          <mxGeometry x="150" y="114.83999999999999" width="40" height="20" as="geometry" />
        </mxCell>
        <mxCell id="td2FWiPlg4FryS3ejVmA-130" value="4" style="text;html=1;strokeColor=none;fillColor=none;align=center;verticalAlign=middle;whiteSpace=wrap;rounded=0;" parent="1" vertex="1">
          <mxGeometry x="285" y="109.99999999999999" width="40" height="20" as="geometry" />
        </mxCell>
        <mxCell id="td2FWiPlg4FryS3ejVmA-131" value="4" style="text;html=1;strokeColor=none;fillColor=none;align=center;verticalAlign=middle;whiteSpace=wrap;rounded=0;" parent="1" vertex="1">
          <mxGeometry x="393.5" y="114.83999999999999" width="40" height="20" as="geometry" />
        </mxCell>
        <mxCell id="td2FWiPlg4FryS3ejVmA-132" value="4" style="text;html=1;strokeColor=none;fillColor=none;align=center;verticalAlign=middle;whiteSpace=wrap;rounded=0;" parent="1" vertex="1">
          <mxGeometry x="517.5" y="120" width="25" height="20" as="geometry" />
        </mxCell>
        <mxCell id="td2FWiPlg4FryS3ejVmA-133" value="4" style="text;html=1;strokeColor=none;fillColor=none;align=center;verticalAlign=middle;whiteSpace=wrap;rounded=0;" parent="1" vertex="1">
          <mxGeometry x="510" y="230" width="40" height="20" as="geometry" />
        </mxCell>
        <mxCell id="td2FWiPlg4FryS3ejVmA-138" value="4" style="text;html=1;strokeColor=none;fillColor=none;align=center;verticalAlign=middle;whiteSpace=wrap;rounded=0;" parent="1" vertex="1">
          <mxGeometry x="285" y="230" width="25" height="20" as="geometry" />
        </mxCell>
        <mxCell id="td2FWiPlg4FryS3ejVmA-139" value="4" style="text;html=1;strokeColor=none;fillColor=none;align=center;verticalAlign=middle;whiteSpace=wrap;rounded=0;" parent="1" vertex="1">
          <mxGeometry x="162" y="227" width="15" height="20" as="geometry" />
        </mxCell>
        <mxCell id="td2FWiPlg4FryS3ejVmA-141" value="&lt;font style=&quot;font-size: 14px&quot;&gt;&lt;b&gt;h1&lt;/b&gt;&lt;/font&gt;" style="text;html=1;strokeColor=none;fillColor=none;align=center;verticalAlign=middle;whiteSpace=wrap;rounded=0;" parent="1" vertex="1">
          <mxGeometry x="85" y="383" width="40" height="20" as="geometry" />
        </mxCell>
        <mxCell id="td2FWiPlg4FryS3ejVmA-142" value="&lt;font style=&quot;font-size: 14px&quot;&gt;&lt;b&gt;h2&lt;/b&gt;&lt;/font&gt;" style="text;html=1;strokeColor=none;fillColor=none;align=center;verticalAlign=middle;whiteSpace=wrap;rounded=0;" parent="1" vertex="1">
          <mxGeometry x="120" y="383" width="40" height="20" as="geometry" />
        </mxCell>
        <mxCell id="td2FWiPlg4FryS3ejVmA-143" value="&lt;font style=&quot;font-size: 14px&quot;&gt;&lt;b&gt;h3&lt;/b&gt;&lt;/font&gt;" style="text;html=1;strokeColor=none;fillColor=none;align=center;verticalAlign=middle;whiteSpace=wrap;rounded=0;" parent="1" vertex="1">
          <mxGeometry x="150" y="383" width="40" height="20" as="geometry" />
        </mxCell>
        <mxCell id="td2FWiPlg4FryS3ejVmA-144" value="&lt;font style=&quot;font-size: 14px&quot;&gt;&lt;b&gt;h4&lt;/b&gt;&lt;/font&gt;" style="text;html=1;strokeColor=none;fillColor=none;align=center;verticalAlign=middle;whiteSpace=wrap;rounded=0;" parent="1" vertex="1">
          <mxGeometry x="180" y="383" width="40" height="20" as="geometry" />
        </mxCell>
        <mxCell id="td2FWiPlg4FryS3ejVmA-146" value="&lt;font style=&quot;font-size: 14px&quot;&gt;&lt;b&gt;h5&lt;/b&gt;&lt;/font&gt;" style="text;html=1;strokeColor=none;fillColor=none;align=center;verticalAlign=middle;whiteSpace=wrap;rounded=0;" parent="1" vertex="1">
          <mxGeometry x="220" y="383" width="40" height="20" as="geometry" />
        </mxCell>
        <mxCell id="td2FWiPlg4FryS3ejVmA-147" value="&lt;font style=&quot;font-size: 14px&quot;&gt;&lt;b&gt;h6&lt;/b&gt;&lt;/font&gt;" style="text;html=1;strokeColor=none;fillColor=none;align=center;verticalAlign=middle;whiteSpace=wrap;rounded=0;" parent="1" vertex="1">
          <mxGeometry x="250" y="383" width="40" height="20" as="geometry" />
        </mxCell>
        <mxCell id="td2FWiPlg4FryS3ejVmA-148" value="&lt;font style=&quot;font-size: 14px&quot;&gt;&lt;b&gt;h7&lt;/b&gt;&lt;/font&gt;" style="text;html=1;strokeColor=none;fillColor=none;align=center;verticalAlign=middle;whiteSpace=wrap;rounded=0;" parent="1" vertex="1">
          <mxGeometry x="280" y="383" width="40" height="20" as="geometry" />
        </mxCell>
        <mxCell id="td2FWiPlg4FryS3ejVmA-149" value="&lt;font style=&quot;font-size: 14px&quot;&gt;&lt;b&gt;h8&lt;/b&gt;&lt;/font&gt;" style="text;html=1;strokeColor=none;fillColor=none;align=center;verticalAlign=middle;whiteSpace=wrap;rounded=0;" parent="1" vertex="1">
          <mxGeometry x="310" y="383" width="40" height="20" as="geometry" />
        </mxCell>
        <mxCell id="td2FWiPlg4FryS3ejVmA-150" value="&lt;font style=&quot;font-size: 14px&quot;&gt;&lt;b&gt;h9&lt;/b&gt;&lt;/font&gt;" style="text;html=1;strokeColor=none;fillColor=none;align=center;verticalAlign=middle;whiteSpace=wrap;rounded=0;" parent="1" vertex="1">
          <mxGeometry x="340" y="383" width="40" height="20" as="geometry" />
        </mxCell>
        <mxCell id="td2FWiPlg4FryS3ejVmA-151" value="&lt;font style=&quot;font-size: 14px&quot;&gt;&lt;b&gt;h10&lt;/b&gt;&lt;/font&gt;" style="text;html=1;strokeColor=none;fillColor=none;align=center;verticalAlign=middle;whiteSpace=wrap;rounded=0;" parent="1" vertex="1">
          <mxGeometry x="369" y="383" width="40" height="20" as="geometry" />
        </mxCell>
        <mxCell id="td2FWiPlg4FryS3ejVmA-152" value="&lt;font style=&quot;font-size: 14px&quot;&gt;&lt;b&gt;h11&lt;/b&gt;&lt;/font&gt;" style="text;html=1;strokeColor=none;fillColor=none;align=center;verticalAlign=middle;whiteSpace=wrap;rounded=0;" parent="1" vertex="1">
          <mxGeometry x="400" y="383" width="40" height="20" as="geometry" />
        </mxCell>
        <mxCell id="td2FWiPlg4FryS3ejVmA-153" value="&lt;font style=&quot;font-size: 14px&quot;&gt;&lt;b&gt;h12&lt;/b&gt;&lt;/font&gt;" style="text;html=1;strokeColor=none;fillColor=none;align=center;verticalAlign=middle;whiteSpace=wrap;rounded=0;" parent="1" vertex="1">
          <mxGeometry x="430" y="383" width="40" height="20" as="geometry" />
        </mxCell>
        <mxCell id="td2FWiPlg4FryS3ejVmA-154" value="&lt;font style=&quot;font-size: 14px&quot;&gt;&lt;b&gt;h13&lt;/b&gt;&lt;/font&gt;" style="text;html=1;strokeColor=none;fillColor=none;align=center;verticalAlign=middle;whiteSpace=wrap;rounded=0;" parent="1" vertex="1">
          <mxGeometry x="460" y="383" width="40" height="20" as="geometry" />
        </mxCell>
        <mxCell id="td2FWiPlg4FryS3ejVmA-155" value="&lt;font style=&quot;font-size: 14px&quot;&gt;&lt;b&gt;h14&lt;/b&gt;&lt;/font&gt;" style="text;html=1;strokeColor=none;fillColor=none;align=center;verticalAlign=middle;whiteSpace=wrap;rounded=0;" parent="1" vertex="1">
          <mxGeometry x="490" y="383" width="40" height="20" as="geometry" />
        </mxCell>
        <mxCell id="td2FWiPlg4FryS3ejVmA-156" value="&lt;font style=&quot;font-size: 14px&quot;&gt;&lt;b&gt;h15&lt;/b&gt;&lt;/font&gt;" style="text;html=1;strokeColor=none;fillColor=none;align=center;verticalAlign=middle;whiteSpace=wrap;rounded=0;" parent="1" vertex="1">
          <mxGeometry x="517.5" y="383" width="40" height="20" as="geometry" />
        </mxCell>
        <mxCell id="td2FWiPlg4FryS3ejVmA-157" value="&lt;font style=&quot;font-size: 14px&quot;&gt;&lt;b&gt;h16&lt;/b&gt;&lt;/font&gt;" style="text;html=1;strokeColor=none;fillColor=none;align=center;verticalAlign=middle;whiteSpace=wrap;rounded=0;" parent="1" vertex="1">
          <mxGeometry x="550" y="383" width="40" height="20" as="geometry" />
        </mxCell>
        <mxCell id="L0sxoJ8NojBfWLKHBl2A-1" value="" style="shape=cube;whiteSpace=wrap;html=1;boundedLbl=1;backgroundOutline=1;darkOpacity=0.05;darkOpacity2=0.1;" vertex="1" parent="1">
          <mxGeometry x="532.5" y="740" width="40" height="60" as="geometry" />
        </mxCell>
        <mxCell id="L0sxoJ8NojBfWLKHBl2A-2" value="" style="shape=cube;whiteSpace=wrap;html=1;boundedLbl=1;backgroundOutline=1;darkOpacity=0.05;darkOpacity2=0.1;" vertex="1" parent="1">
          <mxGeometry x="502.5" y="740" width="40" height="60" as="geometry" />
        </mxCell>
        <mxCell id="L0sxoJ8NojBfWLKHBl2A-3" value="" style="shape=cylinder3;whiteSpace=wrap;html=1;boundedLbl=1;backgroundOutline=1;size=15;" vertex="1" parent="1">
          <mxGeometry x="472.5" y="616.6600000000001" width="50" height="41.67" as="geometry" />
        </mxCell>
        <mxCell id="L0sxoJ8NojBfWLKHBl2A-4" value="" style="shape=cube;whiteSpace=wrap;html=1;boundedLbl=1;backgroundOutline=1;darkOpacity=0.05;darkOpacity2=0.1;" vertex="1" parent="1">
          <mxGeometry x="472.5" y="740" width="40" height="60" as="geometry" />
        </mxCell>
        <mxCell id="L0sxoJ8NojBfWLKHBl2A-5" value="" style="shape=cube;whiteSpace=wrap;html=1;boundedLbl=1;backgroundOutline=1;darkOpacity=0.05;darkOpacity2=0.1;" vertex="1" parent="1">
          <mxGeometry x="442.5" y="740" width="40" height="60" as="geometry" />
        </mxCell>
        <mxCell id="L0sxoJ8NojBfWLKHBl2A-6" value="" style="endArrow=none;html=1;exitX=0;exitY=0;exitDx=10;exitDy=0;exitPerimeter=0;entryX=0.145;entryY=1;entryDx=0;entryDy=-4.35;entryPerimeter=0;" edge="1" parent="1" source="L0sxoJ8NojBfWLKHBl2A-5" target="L0sxoJ8NojBfWLKHBl2A-3">
          <mxGeometry width="50" height="50" relative="1" as="geometry">
            <mxPoint x="752.5" y="840" as="sourcePoint" />
            <mxPoint x="802.5" y="790" as="targetPoint" />
          </mxGeometry>
        </mxCell>
        <mxCell id="L0sxoJ8NojBfWLKHBl2A-7" value="" style="endArrow=none;html=1;exitX=0;exitY=0;exitDx=10;exitDy=0;exitPerimeter=0;entryX=0.38;entryY=1.016;entryDx=0;entryDy=0;entryPerimeter=0;" edge="1" parent="1" source="L0sxoJ8NojBfWLKHBl2A-4" target="L0sxoJ8NojBfWLKHBl2A-3">
          <mxGeometry width="50" height="50" relative="1" as="geometry">
            <mxPoint x="462.5" y="750" as="sourcePoint" />
            <mxPoint x="527.5" y="600" as="targetPoint" />
          </mxGeometry>
        </mxCell>
        <mxCell id="L0sxoJ8NojBfWLKHBl2A-8" value="" style="endArrow=none;html=1;exitX=0;exitY=0;exitDx=10;exitDy=0;exitPerimeter=0;" edge="1" parent="1" source="L0sxoJ8NojBfWLKHBl2A-2" target="L0sxoJ8NojBfWLKHBl2A-3">
          <mxGeometry width="50" height="50" relative="1" as="geometry">
            <mxPoint x="492.5" y="750" as="sourcePoint" />
            <mxPoint x="527.5" y="600" as="targetPoint" />
          </mxGeometry>
        </mxCell>
        <mxCell id="L0sxoJ8NojBfWLKHBl2A-9" value="" style="endArrow=none;html=1;exitX=0;exitY=0;exitDx=10;exitDy=0;exitPerimeter=0;entryX=0.855;entryY=1;entryDx=0;entryDy=-4.35;entryPerimeter=0;" edge="1" parent="1" source="L0sxoJ8NojBfWLKHBl2A-1" target="L0sxoJ8NojBfWLKHBl2A-3">
          <mxGeometry width="50" height="50" relative="1" as="geometry">
            <mxPoint x="502.5" y="760" as="sourcePoint" />
            <mxPoint x="537.5" y="610" as="targetPoint" />
          </mxGeometry>
        </mxCell>
        <mxCell id="L0sxoJ8NojBfWLKHBl2A-10" value="" style="shape=cube;whiteSpace=wrap;html=1;boundedLbl=1;backgroundOutline=1;darkOpacity=0.05;darkOpacity2=0.1;" vertex="1" parent="1">
          <mxGeometry x="412.5" y="740" width="40" height="60" as="geometry" />
        </mxCell>
        <mxCell id="L0sxoJ8NojBfWLKHBl2A-11" value="" style="shape=cube;whiteSpace=wrap;html=1;boundedLbl=1;backgroundOutline=1;darkOpacity=0.05;darkOpacity2=0.1;" vertex="1" parent="1">
          <mxGeometry x="382.5" y="740" width="40" height="60" as="geometry" />
        </mxCell>
        <mxCell id="L0sxoJ8NojBfWLKHBl2A-12" value="" style="shape=cube;whiteSpace=wrap;html=1;boundedLbl=1;backgroundOutline=1;darkOpacity=0.05;darkOpacity2=0.1;" vertex="1" parent="1">
          <mxGeometry x="352.5" y="740" width="40" height="60" as="geometry" />
        </mxCell>
        <mxCell id="L0sxoJ8NojBfWLKHBl2A-13" value="" style="shape=cube;whiteSpace=wrap;html=1;boundedLbl=1;backgroundOutline=1;darkOpacity=0.05;darkOpacity2=0.1;" vertex="1" parent="1">
          <mxGeometry x="322.5" y="740" width="40" height="60" as="geometry" />
        </mxCell>
        <mxCell id="L0sxoJ8NojBfWLKHBl2A-14" value="" style="endArrow=none;html=1;exitX=0;exitY=0;exitDx=10;exitDy=0;exitPerimeter=0;entryX=0.145;entryY=1;entryDx=0;entryDy=-4.35;entryPerimeter=0;" edge="1" parent="1" source="L0sxoJ8NojBfWLKHBl2A-13" target="L0sxoJ8NojBfWLKHBl2A-63">
          <mxGeometry width="50" height="50" relative="1" as="geometry">
            <mxPoint x="632.5" y="840" as="sourcePoint" />
            <mxPoint x="382.5" y="658" as="targetPoint" />
          </mxGeometry>
        </mxCell>
        <mxCell id="L0sxoJ8NojBfWLKHBl2A-15" value="" style="endArrow=none;html=1;exitX=0;exitY=0;exitDx=10;exitDy=0;exitPerimeter=0;entryX=0.3;entryY=1;entryDx=0;entryDy=0;entryPerimeter=0;" edge="1" parent="1" source="L0sxoJ8NojBfWLKHBl2A-12" target="L0sxoJ8NojBfWLKHBl2A-63">
          <mxGeometry width="50" height="50" relative="1" as="geometry">
            <mxPoint x="342.5" y="750" as="sourcePoint" />
            <mxPoint x="407.5" y="600" as="targetPoint" />
          </mxGeometry>
        </mxCell>
        <mxCell id="L0sxoJ8NojBfWLKHBl2A-16" value="" style="endArrow=none;html=1;exitX=0;exitY=0;exitDx=10;exitDy=0;exitPerimeter=0;" edge="1" parent="1" source="L0sxoJ8NojBfWLKHBl2A-11" target="L0sxoJ8NojBfWLKHBl2A-63">
          <mxGeometry width="50" height="50" relative="1" as="geometry">
            <mxPoint x="372.5" y="750" as="sourcePoint" />
            <mxPoint x="407.5" y="600" as="targetPoint" />
          </mxGeometry>
        </mxCell>
        <mxCell id="L0sxoJ8NojBfWLKHBl2A-17" value="" style="endArrow=none;html=1;exitX=0;exitY=0;exitDx=10;exitDy=0;exitPerimeter=0;" edge="1" parent="1" source="L0sxoJ8NojBfWLKHBl2A-10">
          <mxGeometry width="50" height="50" relative="1" as="geometry">
            <mxPoint x="382.5" y="760" as="sourcePoint" />
            <mxPoint x="402.5" y="658" as="targetPoint" />
          </mxGeometry>
        </mxCell>
        <mxCell id="L0sxoJ8NojBfWLKHBl2A-18" value="" style="shape=cylinder3;whiteSpace=wrap;html=1;boundedLbl=1;backgroundOutline=1;size=15;" vertex="1" parent="1">
          <mxGeometry x="232.5" y="510" width="50" height="41.67" as="geometry" />
        </mxCell>
        <mxCell id="L0sxoJ8NojBfWLKHBl2A-19" value="" style="shape=cylinder3;whiteSpace=wrap;html=1;boundedLbl=1;backgroundOutline=1;size=15;" vertex="1" parent="1">
          <mxGeometry x="107.5" y="510" width="50" height="41.67" as="geometry" />
        </mxCell>
        <mxCell id="L0sxoJ8NojBfWLKHBl2A-20" value="" style="shape=cube;whiteSpace=wrap;html=1;boundedLbl=1;backgroundOutline=1;darkOpacity=0.05;darkOpacity2=0.1;" vertex="1" parent="1">
          <mxGeometry x="292.5" y="740" width="40" height="60" as="geometry" />
        </mxCell>
        <mxCell id="L0sxoJ8NojBfWLKHBl2A-21" value="" style="shape=cube;whiteSpace=wrap;html=1;boundedLbl=1;backgroundOutline=1;darkOpacity=0.05;darkOpacity2=0.1;" vertex="1" parent="1">
          <mxGeometry x="262.5" y="740" width="40" height="60" as="geometry" />
        </mxCell>
        <mxCell id="L0sxoJ8NojBfWLKHBl2A-22" value="" style="shape=cube;whiteSpace=wrap;html=1;boundedLbl=1;backgroundOutline=1;darkOpacity=0.05;darkOpacity2=0.1;" vertex="1" parent="1">
          <mxGeometry x="232.5" y="740" width="40" height="60" as="geometry" />
        </mxCell>
        <mxCell id="L0sxoJ8NojBfWLKHBl2A-23" value="" style="shape=cube;whiteSpace=wrap;html=1;boundedLbl=1;backgroundOutline=1;darkOpacity=0.05;darkOpacity2=0.1;" vertex="1" parent="1">
          <mxGeometry x="202.5" y="740" width="40" height="60" as="geometry" />
        </mxCell>
        <mxCell id="L0sxoJ8NojBfWLKHBl2A-24" value="" style="endArrow=none;html=1;exitX=0;exitY=0;exitDx=10;exitDy=0;exitPerimeter=0;" edge="1" parent="1" source="L0sxoJ8NojBfWLKHBl2A-23">
          <mxGeometry width="50" height="50" relative="1" as="geometry">
            <mxPoint x="512.5" y="840" as="sourcePoint" />
            <mxPoint x="252.5" y="658" as="targetPoint" />
          </mxGeometry>
        </mxCell>
        <mxCell id="L0sxoJ8NojBfWLKHBl2A-25" value="" style="endArrow=none;html=1;exitX=0;exitY=0;exitDx=10;exitDy=0;exitPerimeter=0;entryX=0.5;entryY=1;entryDx=0;entryDy=0;entryPerimeter=0;" edge="1" parent="1" source="L0sxoJ8NojBfWLKHBl2A-22" target="L0sxoJ8NojBfWLKHBl2A-61">
          <mxGeometry width="50" height="50" relative="1" as="geometry">
            <mxPoint x="222.5" y="750" as="sourcePoint" />
            <mxPoint x="287.5" y="600" as="targetPoint" />
          </mxGeometry>
        </mxCell>
        <mxCell id="L0sxoJ8NojBfWLKHBl2A-26" value="" style="endArrow=none;html=1;exitX=0;exitY=0;exitDx=10;exitDy=0;exitPerimeter=0;" edge="1" parent="1" source="L0sxoJ8NojBfWLKHBl2A-21">
          <mxGeometry width="50" height="50" relative="1" as="geometry">
            <mxPoint x="252.5" y="750" as="sourcePoint" />
            <mxPoint x="272.5" y="658" as="targetPoint" />
          </mxGeometry>
        </mxCell>
        <mxCell id="L0sxoJ8NojBfWLKHBl2A-27" value="" style="endArrow=none;html=1;exitX=0;exitY=0;exitDx=10;exitDy=0;exitPerimeter=0;entryX=0.855;entryY=1;entryDx=0;entryDy=-4.35;entryPerimeter=0;" edge="1" parent="1" source="L0sxoJ8NojBfWLKHBl2A-20" target="L0sxoJ8NojBfWLKHBl2A-61">
          <mxGeometry width="50" height="50" relative="1" as="geometry">
            <mxPoint x="262.5" y="760" as="sourcePoint" />
            <mxPoint x="297.5" y="610" as="targetPoint" />
          </mxGeometry>
        </mxCell>
        <mxCell id="L0sxoJ8NojBfWLKHBl2A-28" value="" style="shape=cube;whiteSpace=wrap;html=1;boundedLbl=1;backgroundOutline=1;darkOpacity=0.05;darkOpacity2=0.1;" vertex="1" parent="1">
          <mxGeometry x="167.5" y="740" width="40" height="60" as="geometry" />
        </mxCell>
        <mxCell id="L0sxoJ8NojBfWLKHBl2A-29" value="" style="shape=cube;whiteSpace=wrap;html=1;boundedLbl=1;backgroundOutline=1;darkOpacity=0.05;darkOpacity2=0.1;" vertex="1" parent="1">
          <mxGeometry x="137.5" y="740" width="40" height="60" as="geometry" />
        </mxCell>
        <mxCell id="L0sxoJ8NojBfWLKHBl2A-30" value="" style="shape=cylinder3;whiteSpace=wrap;html=1;boundedLbl=1;backgroundOutline=1;size=15;" vertex="1" parent="1">
          <mxGeometry x="112.5" y="616.6600000000001" width="50" height="41.67" as="geometry" />
        </mxCell>
        <mxCell id="L0sxoJ8NojBfWLKHBl2A-31" value="" style="shape=cube;whiteSpace=wrap;html=1;boundedLbl=1;backgroundOutline=1;darkOpacity=0.05;darkOpacity2=0.1;" vertex="1" parent="1">
          <mxGeometry x="107.5" y="740" width="40" height="60" as="geometry" />
        </mxCell>
        <mxCell id="L0sxoJ8NojBfWLKHBl2A-32" value="" style="shape=cube;whiteSpace=wrap;html=1;boundedLbl=1;backgroundOutline=1;darkOpacity=0.05;darkOpacity2=0.1;" vertex="1" parent="1">
          <mxGeometry x="77.5" y="740" width="40" height="60" as="geometry" />
        </mxCell>
        <mxCell id="L0sxoJ8NojBfWLKHBl2A-33" value="" style="endArrow=none;html=1;exitX=0;exitY=0;exitDx=10;exitDy=0;exitPerimeter=0;entryX=0.145;entryY=1;entryDx=0;entryDy=-4.35;entryPerimeter=0;" edge="1" parent="1" source="L0sxoJ8NojBfWLKHBl2A-32" target="L0sxoJ8NojBfWLKHBl2A-30">
          <mxGeometry width="50" height="50" relative="1" as="geometry">
            <mxPoint x="387.5" y="840" as="sourcePoint" />
            <mxPoint x="437.5" y="790" as="targetPoint" />
          </mxGeometry>
        </mxCell>
        <mxCell id="L0sxoJ8NojBfWLKHBl2A-34" value="" style="endArrow=none;html=1;exitX=0;exitY=0;exitDx=10;exitDy=0;exitPerimeter=0;entryX=0.36;entryY=1.064;entryDx=0;entryDy=0;entryPerimeter=0;" edge="1" parent="1" source="L0sxoJ8NojBfWLKHBl2A-31" target="L0sxoJ8NojBfWLKHBl2A-30">
          <mxGeometry width="50" height="50" relative="1" as="geometry">
            <mxPoint x="97.5" y="750" as="sourcePoint" />
            <mxPoint x="162.5" y="600" as="targetPoint" />
          </mxGeometry>
        </mxCell>
        <mxCell id="L0sxoJ8NojBfWLKHBl2A-35" value="" style="endArrow=none;html=1;exitX=0;exitY=0;exitDx=10;exitDy=0;exitPerimeter=0;" edge="1" parent="1" source="L0sxoJ8NojBfWLKHBl2A-29" target="L0sxoJ8NojBfWLKHBl2A-30">
          <mxGeometry width="50" height="50" relative="1" as="geometry">
            <mxPoint x="127.5" y="750" as="sourcePoint" />
            <mxPoint x="162.5" y="600" as="targetPoint" />
          </mxGeometry>
        </mxCell>
        <mxCell id="L0sxoJ8NojBfWLKHBl2A-36" value="" style="endArrow=none;html=1;exitX=0;exitY=0;exitDx=10;exitDy=0;exitPerimeter=0;entryX=0.855;entryY=1;entryDx=0;entryDy=-4.35;entryPerimeter=0;" edge="1" parent="1" source="L0sxoJ8NojBfWLKHBl2A-28" target="L0sxoJ8NojBfWLKHBl2A-30">
          <mxGeometry width="50" height="50" relative="1" as="geometry">
            <mxPoint x="137.5" y="760" as="sourcePoint" />
            <mxPoint x="172.5" y="610" as="targetPoint" />
          </mxGeometry>
        </mxCell>
        <mxCell id="L0sxoJ8NojBfWLKHBl2A-37" value="" style="endArrow=none;html=1;exitX=0;exitY=0;exitDx=10;exitDy=0;exitPerimeter=0;entryX=0.3;entryY=1.032;entryDx=0;entryDy=0;entryPerimeter=0;" edge="1" parent="1" source="L0sxoJ8NojBfWLKHBl2A-32" target="L0sxoJ8NojBfWLKHBl2A-19">
          <mxGeometry width="50" height="50" relative="1" as="geometry">
            <mxPoint x="97.5" y="750" as="sourcePoint" />
            <mxPoint x="147.5" y="668.33" as="targetPoint" />
          </mxGeometry>
        </mxCell>
        <mxCell id="L0sxoJ8NojBfWLKHBl2A-38" value="" style="endArrow=none;html=1;exitX=0;exitY=0;exitDx=10;exitDy=0;exitPerimeter=0;" edge="1" parent="1" source="L0sxoJ8NojBfWLKHBl2A-23">
          <mxGeometry width="50" height="50" relative="1" as="geometry">
            <mxPoint x="107.5" y="760" as="sourcePoint" />
            <mxPoint x="132.5" y="552" as="targetPoint" />
          </mxGeometry>
        </mxCell>
        <mxCell id="L0sxoJ8NojBfWLKHBl2A-39" value="" style="endArrow=none;html=1;exitX=0;exitY=0;exitDx=10;exitDy=0;exitPerimeter=0;" edge="1" parent="1" source="L0sxoJ8NojBfWLKHBl2A-13">
          <mxGeometry width="50" height="50" relative="1" as="geometry">
            <mxPoint x="117.5" y="770" as="sourcePoint" />
            <mxPoint x="142.5" y="552" as="targetPoint" />
          </mxGeometry>
        </mxCell>
        <mxCell id="L0sxoJ8NojBfWLKHBl2A-40" value="" style="endArrow=none;html=1;exitX=0;exitY=0;exitDx=10;exitDy=0;exitPerimeter=0;entryX=0.855;entryY=1;entryDx=0;entryDy=-4.35;entryPerimeter=0;" edge="1" parent="1" source="L0sxoJ8NojBfWLKHBl2A-5" target="L0sxoJ8NojBfWLKHBl2A-19">
          <mxGeometry width="50" height="50" relative="1" as="geometry">
            <mxPoint x="127.5" y="780" as="sourcePoint" />
            <mxPoint x="152.5" y="540" as="targetPoint" />
          </mxGeometry>
        </mxCell>
        <mxCell id="L0sxoJ8NojBfWLKHBl2A-41" value="" style="endArrow=none;html=1;exitX=0;exitY=0;exitDx=10;exitDy=0;exitPerimeter=0;entryX=0.145;entryY=1;entryDx=0;entryDy=-4.35;entryPerimeter=0;" edge="1" parent="1" source="L0sxoJ8NojBfWLKHBl2A-31" target="L0sxoJ8NojBfWLKHBl2A-18">
          <mxGeometry width="50" height="50" relative="1" as="geometry">
            <mxPoint x="137.5" y="790" as="sourcePoint" />
            <mxPoint x="187.5" y="708.33" as="targetPoint" />
          </mxGeometry>
        </mxCell>
        <mxCell id="L0sxoJ8NojBfWLKHBl2A-42" value="" style="endArrow=none;html=1;entryX=0.5;entryY=1;entryDx=0;entryDy=0;entryPerimeter=0;" edge="1" parent="1" target="L0sxoJ8NojBfWLKHBl2A-18">
          <mxGeometry width="50" height="50" relative="1" as="geometry">
            <mxPoint x="242.5" y="740" as="sourcePoint" />
            <mxPoint x="197.5" y="718.33" as="targetPoint" />
          </mxGeometry>
        </mxCell>
        <mxCell id="L0sxoJ8NojBfWLKHBl2A-43" value="" style="endArrow=none;html=1;exitX=0;exitY=0;exitDx=10;exitDy=0;exitPerimeter=0;entryX=0.855;entryY=1;entryDx=0;entryDy=-4.35;entryPerimeter=0;" edge="1" parent="1" source="L0sxoJ8NojBfWLKHBl2A-12" target="L0sxoJ8NojBfWLKHBl2A-18">
          <mxGeometry width="50" height="50" relative="1" as="geometry">
            <mxPoint x="157.5" y="810" as="sourcePoint" />
            <mxPoint x="207.5" y="728.33" as="targetPoint" />
          </mxGeometry>
        </mxCell>
        <mxCell id="L0sxoJ8NojBfWLKHBl2A-44" value="" style="endArrow=none;html=1;exitX=0;exitY=0;exitDx=10;exitDy=0;exitPerimeter=0;" edge="1" parent="1" source="L0sxoJ8NojBfWLKHBl2A-4">
          <mxGeometry width="50" height="50" relative="1" as="geometry">
            <mxPoint x="167.5" y="820" as="sourcePoint" />
            <mxPoint x="282.5" y="540" as="targetPoint" />
          </mxGeometry>
        </mxCell>
        <mxCell id="L0sxoJ8NojBfWLKHBl2A-45" value="" style="endArrow=none;html=1;exitX=0;exitY=0;exitDx=10;exitDy=0;exitPerimeter=0;entryX=0.145;entryY=1;entryDx=0;entryDy=-4.35;entryPerimeter=0;" edge="1" parent="1" source="L0sxoJ8NojBfWLKHBl2A-29" target="L0sxoJ8NojBfWLKHBl2A-46">
          <mxGeometry width="50" height="50" relative="1" as="geometry">
            <mxPoint x="322.5" y="631.67" as="sourcePoint" />
            <mxPoint x="372.5" y="550" as="targetPoint" />
          </mxGeometry>
        </mxCell>
        <mxCell id="L0sxoJ8NojBfWLKHBl2A-46" value="" style="shape=cylinder3;whiteSpace=wrap;html=1;boundedLbl=1;backgroundOutline=1;size=15;" vertex="1" parent="1">
          <mxGeometry x="352.5" y="510" width="50" height="41.67" as="geometry" />
        </mxCell>
        <mxCell id="L0sxoJ8NojBfWLKHBl2A-47" value="" style="shape=cylinder3;whiteSpace=wrap;html=1;boundedLbl=1;backgroundOutline=1;size=15;" vertex="1" parent="1">
          <mxGeometry x="467.5" y="510" width="50" height="41.67" as="geometry" />
        </mxCell>
        <mxCell id="L0sxoJ8NojBfWLKHBl2A-48" value="" style="endArrow=none;html=1;entryX=0.34;entryY=0.984;entryDx=0;entryDy=0;entryPerimeter=0;" edge="1" parent="1" target="L0sxoJ8NojBfWLKHBl2A-46">
          <mxGeometry width="50" height="50" relative="1" as="geometry">
            <mxPoint x="272.5" y="740" as="sourcePoint" />
            <mxPoint x="382.5" y="560" as="targetPoint" />
          </mxGeometry>
        </mxCell>
        <mxCell id="L0sxoJ8NojBfWLKHBl2A-49" value="" style="endArrow=none;html=1;exitX=0;exitY=0;exitDx=10;exitDy=0;exitPerimeter=0;entryX=0.66;entryY=1.032;entryDx=0;entryDy=0;entryPerimeter=0;" edge="1" parent="1" source="L0sxoJ8NojBfWLKHBl2A-11" target="L0sxoJ8NojBfWLKHBl2A-46">
          <mxGeometry width="50" height="50" relative="1" as="geometry">
            <mxPoint x="167.5" y="760" as="sourcePoint" />
            <mxPoint x="392.5" y="570" as="targetPoint" />
          </mxGeometry>
        </mxCell>
        <mxCell id="L0sxoJ8NojBfWLKHBl2A-50" value="" style="endArrow=none;html=1;exitX=0;exitY=0;exitDx=10;exitDy=0;exitPerimeter=0;entryX=0.855;entryY=1;entryDx=0;entryDy=-4.35;entryPerimeter=0;" edge="1" parent="1" source="L0sxoJ8NojBfWLKHBl2A-2" target="L0sxoJ8NojBfWLKHBl2A-46">
          <mxGeometry width="50" height="50" relative="1" as="geometry">
            <mxPoint x="177.5" y="770" as="sourcePoint" />
            <mxPoint x="402.5" y="580" as="targetPoint" />
          </mxGeometry>
        </mxCell>
        <mxCell id="L0sxoJ8NojBfWLKHBl2A-51" value="" style="endArrow=none;html=1;exitX=0;exitY=0;exitDx=10;exitDy=0;exitPerimeter=0;entryX=0.145;entryY=1;entryDx=0;entryDy=-4.35;entryPerimeter=0;" edge="1" parent="1" source="L0sxoJ8NojBfWLKHBl2A-28" target="L0sxoJ8NojBfWLKHBl2A-47">
          <mxGeometry width="50" height="50" relative="1" as="geometry">
            <mxPoint x="187.5" y="780" as="sourcePoint" />
            <mxPoint x="412.5" y="590" as="targetPoint" />
          </mxGeometry>
        </mxCell>
        <mxCell id="L0sxoJ8NojBfWLKHBl2A-52" value="" style="endArrow=none;html=1;exitX=0;exitY=0;exitDx=10;exitDy=0;exitPerimeter=0;entryX=0.3;entryY=0.984;entryDx=0;entryDy=0;entryPerimeter=0;" edge="1" parent="1" source="L0sxoJ8NojBfWLKHBl2A-20" target="L0sxoJ8NojBfWLKHBl2A-47">
          <mxGeometry width="50" height="50" relative="1" as="geometry">
            <mxPoint x="197.5" y="790" as="sourcePoint" />
            <mxPoint x="422.5" y="600" as="targetPoint" />
          </mxGeometry>
        </mxCell>
        <mxCell id="L0sxoJ8NojBfWLKHBl2A-53" value="" style="endArrow=none;html=1;exitX=0;exitY=0;exitDx=10;exitDy=0;exitPerimeter=0;entryX=0.5;entryY=0.96;entryDx=0;entryDy=0;entryPerimeter=0;" edge="1" parent="1" source="L0sxoJ8NojBfWLKHBl2A-10" target="L0sxoJ8NojBfWLKHBl2A-47">
          <mxGeometry width="50" height="50" relative="1" as="geometry">
            <mxPoint x="207.5" y="800" as="sourcePoint" />
            <mxPoint x="502.5" y="550" as="targetPoint" />
          </mxGeometry>
        </mxCell>
        <mxCell id="L0sxoJ8NojBfWLKHBl2A-54" value="" style="endArrow=none;html=1;exitX=0;exitY=0;exitDx=10;exitDy=0;exitPerimeter=0;entryX=0.855;entryY=1;entryDx=0;entryDy=-4.35;entryPerimeter=0;" edge="1" parent="1" source="L0sxoJ8NojBfWLKHBl2A-1" target="L0sxoJ8NojBfWLKHBl2A-47">
          <mxGeometry width="50" height="50" relative="1" as="geometry">
            <mxPoint x="217.5" y="810" as="sourcePoint" />
            <mxPoint x="442.5" y="620" as="targetPoint" />
          </mxGeometry>
        </mxCell>
        <mxCell id="L0sxoJ8NojBfWLKHBl2A-55" value="&lt;font style=&quot;font-size: 14px&quot;&gt;&lt;b&gt;s1&lt;/b&gt;&lt;/font&gt;" style="text;html=1;strokeColor=none;fillColor=none;align=center;verticalAlign=middle;whiteSpace=wrap;rounded=0;" vertex="1" parent="1">
          <mxGeometry x="117.5" y="620" width="40" height="20" as="geometry" />
        </mxCell>
        <mxCell id="L0sxoJ8NojBfWLKHBl2A-56" value="&lt;font style=&quot;font-size: 14px&quot;&gt;&lt;b&gt;s4&lt;/b&gt;&lt;/font&gt;&lt;span style=&quot;color: rgba(0 , 0 , 0 , 0) ; font-family: monospace ; font-size: 0px&quot;&gt;%3CmxGraphModel%3E%3Croot%3E%3CmxCell%20id%3D%220%22%2F%3E%3CmxCell%20id%3D%221%22%20parent%3D%220%22%2F%3E%3CmxCell%20id%3D%222%22%20value%3D%22%26lt%3Bfont%20style%3D%26quot%3Bfont-size%3A%2014px%26quot%3B%26gt%3B%26lt%3Bb%26gt%3Bs1%26lt%3B%2Fb%26gt%3B%26lt%3B%2Ffont%26gt%3B%22%20style%3D%22text%3Bhtml%3D1%3BstrokeColor%3Dnone%3BfillColor%3Dnone%3Balign%3Dcenter%3BverticalAlign%3Dmiddle%3BwhiteSpace%3Dwrap%3Brounded%3D0%3B%22%20vertex%3D%221%22%20parent%3D%221%22%3E%3CmxGeometry%20x%3D%22125%22%20y%3D%22200%22%20width%3D%2240%22%20height%3D%2220%22%20as%3D%22geometry%22%2F%3E%3C%2FmxCell%3E%3C%2Froot%3E%3C%2FmxGraphModel%3E&lt;/span&gt;" style="text;html=1;strokeColor=none;fillColor=none;align=center;verticalAlign=middle;whiteSpace=wrap;rounded=0;" vertex="1" parent="1">
          <mxGeometry x="477.5" y="620" width="40" height="20" as="geometry" />
        </mxCell>
        <mxCell id="L0sxoJ8NojBfWLKHBl2A-57" value="&lt;font style=&quot;font-size: 14px&quot;&gt;&lt;b&gt;s5&lt;/b&gt;&lt;/font&gt;" style="text;html=1;strokeColor=none;fillColor=none;align=center;verticalAlign=middle;whiteSpace=wrap;rounded=0;" vertex="1" parent="1">
          <mxGeometry x="112.5" y="514.84" width="40" height="20" as="geometry" />
        </mxCell>
        <mxCell id="L0sxoJ8NojBfWLKHBl2A-58" value="&lt;font style=&quot;font-size: 14px&quot;&gt;&lt;b&gt;s6&lt;/b&gt;&lt;/font&gt;" style="text;html=1;strokeColor=none;fillColor=none;align=center;verticalAlign=middle;whiteSpace=wrap;rounded=0;" vertex="1" parent="1">
          <mxGeometry x="237.5" y="514.84" width="40" height="20" as="geometry" />
        </mxCell>
        <mxCell id="L0sxoJ8NojBfWLKHBl2A-59" value="&lt;font style=&quot;font-size: 14px&quot;&gt;&lt;b&gt;s7&lt;/b&gt;&lt;/font&gt;&lt;span style=&quot;color: rgba(0 , 0 , 0 , 0) ; font-family: monospace ; font-size: 0px&quot;&gt;%3CmxGraphModel%3E%3Croot%3E%3CmxCell%20id%3D%220%22%2F%3E%3CmxCell%20id%3D%221%22%20parent%3D%220%22%2F%3E%3CmxCell%20id%3D%222%22%20value%3D%22%26lt%3Bfont%20style%3D%26quot%3Bfont-size%3A%2014px%26quot%3B%26gt%3B%26lt%3Bb%26gt%3Bs5%26lt%3B%2Fb%26gt%3B%26lt%3B%2Ffont%26gt%3B%22%20style%3D%22text%3Bhtml%3D1%3BstrokeColor%3Dnone%3BfillColor%3Dnone%3Balign%3Dcenter%3BverticalAlign%3Dmiddle%3BwhiteSpace%3Dwrap%3Brounded%3D0%3B%22%20vertex%3D%221%22%20parent%3D%221%22%3E%3CmxGeometry%20x%3D%22120%22%20y%3D%2294.84%22%20width%3D%2240%22%20height%3D%2220%22%20as%3D%22geometry%22%2F%3E%3C%2FmxCell%3E%3C%2Froot%3E%3C%2FmxGraphModel%3E&lt;/span&gt;" style="text;html=1;strokeColor=none;fillColor=none;align=center;verticalAlign=middle;whiteSpace=wrap;rounded=0;" vertex="1" parent="1">
          <mxGeometry x="357.5" y="514.84" width="40" height="20" as="geometry" />
        </mxCell>
        <mxCell id="L0sxoJ8NojBfWLKHBl2A-60" value="&lt;font style=&quot;font-size: 14px&quot;&gt;&lt;b&gt;s8&lt;/b&gt;&lt;/font&gt;" style="text;html=1;strokeColor=none;fillColor=none;align=center;verticalAlign=middle;whiteSpace=wrap;rounded=0;" vertex="1" parent="1">
          <mxGeometry x="472.5" y="514.84" width="40" height="20" as="geometry" />
        </mxCell>
        <mxCell id="L0sxoJ8NojBfWLKHBl2A-61" value="" style="shape=cylinder3;whiteSpace=wrap;html=1;boundedLbl=1;backgroundOutline=1;size=15;" vertex="1" parent="1">
          <mxGeometry x="237.5" y="616.6600000000001" width="50" height="41.67" as="geometry" />
        </mxCell>
        <mxCell id="L0sxoJ8NojBfWLKHBl2A-62" value="&lt;b&gt;&lt;font style=&quot;font-size: 14px&quot;&gt;s2&lt;/font&gt;&lt;/b&gt;" style="text;html=1;strokeColor=none;fillColor=none;align=center;verticalAlign=middle;whiteSpace=wrap;rounded=0;" vertex="1" parent="1">
          <mxGeometry x="242.5" y="620" width="40" height="20" as="geometry" />
        </mxCell>
        <mxCell id="L0sxoJ8NojBfWLKHBl2A-63" value="" style="shape=cylinder3;whiteSpace=wrap;html=1;boundedLbl=1;backgroundOutline=1;size=15;" vertex="1" parent="1">
          <mxGeometry x="357.5" y="616.6600000000001" width="50" height="41.67" as="geometry" />
        </mxCell>
        <mxCell id="L0sxoJ8NojBfWLKHBl2A-64" value="&lt;font style=&quot;font-size: 14px&quot;&gt;&lt;b&gt;s3&lt;/b&gt;&lt;/font&gt;" style="text;html=1;strokeColor=none;fillColor=none;align=center;verticalAlign=middle;whiteSpace=wrap;rounded=0;" vertex="1" parent="1">
          <mxGeometry x="361.5" y="623" width="40" height="20" as="geometry" />
        </mxCell>
        <mxCell id="L0sxoJ8NojBfWLKHBl2A-65" value="1" style="text;html=1;strokeColor=none;fillColor=none;align=center;verticalAlign=middle;whiteSpace=wrap;rounded=0;" vertex="1" parent="1">
          <mxGeometry x="92.5" y="551.67" width="40" height="20" as="geometry" />
        </mxCell>
        <mxCell id="L0sxoJ8NojBfWLKHBl2A-66" value="1" style="text;html=1;strokeColor=none;fillColor=none;align=center;verticalAlign=middle;whiteSpace=wrap;rounded=0;" vertex="1" parent="1">
          <mxGeometry x="92.5" y="650" width="40" height="20" as="geometry" />
        </mxCell>
        <mxCell id="L0sxoJ8NojBfWLKHBl2A-67" value="1" style="text;html=1;strokeColor=none;fillColor=none;align=center;verticalAlign=middle;whiteSpace=wrap;rounded=0;" vertex="1" parent="1">
          <mxGeometry x="207.5" y="540" width="40" height="20" as="geometry" />
        </mxCell>
        <mxCell id="L0sxoJ8NojBfWLKHBl2A-68" value="1" style="text;html=1;strokeColor=none;fillColor=none;align=center;verticalAlign=middle;whiteSpace=wrap;rounded=0;" vertex="1" parent="1">
          <mxGeometry x="332.5" y="540" width="40" height="20" as="geometry" />
        </mxCell>
        <mxCell id="L0sxoJ8NojBfWLKHBl2A-69" value="1" style="text;html=1;strokeColor=none;fillColor=none;align=center;verticalAlign=middle;whiteSpace=wrap;rounded=0;" vertex="1" parent="1">
          <mxGeometry x="437.5" y="534.84" width="40" height="20" as="geometry" />
        </mxCell>
        <mxCell id="L0sxoJ8NojBfWLKHBl2A-70" value="1" style="text;html=1;strokeColor=none;fillColor=none;align=center;verticalAlign=middle;whiteSpace=wrap;rounded=0;" vertex="1" parent="1">
          <mxGeometry x="212.5" y="650" width="40" height="20" as="geometry" />
        </mxCell>
        <mxCell id="L0sxoJ8NojBfWLKHBl2A-71" value="1" style="text;html=1;strokeColor=none;fillColor=none;align=center;verticalAlign=middle;whiteSpace=wrap;rounded=0;" vertex="1" parent="1">
          <mxGeometry x="332.5" y="643" width="40" height="20" as="geometry" />
        </mxCell>
        <mxCell id="L0sxoJ8NojBfWLKHBl2A-72" value="1" style="text;html=1;strokeColor=none;fillColor=none;align=center;verticalAlign=middle;whiteSpace=wrap;rounded=0;" vertex="1" parent="1">
          <mxGeometry x="452.5" y="650" width="40" height="20" as="geometry" />
        </mxCell>
        <mxCell id="L0sxoJ8NojBfWLKHBl2A-73" value="4" style="text;html=1;strokeColor=none;fillColor=none;align=center;verticalAlign=middle;whiteSpace=wrap;rounded=0;" vertex="1" parent="1">
          <mxGeometry x="142.5" y="534.84" width="40" height="20" as="geometry" />
        </mxCell>
        <mxCell id="L0sxoJ8NojBfWLKHBl2A-74" value="4" style="text;html=1;strokeColor=none;fillColor=none;align=center;verticalAlign=middle;whiteSpace=wrap;rounded=0;" vertex="1" parent="1">
          <mxGeometry x="277.5" y="530" width="40" height="20" as="geometry" />
        </mxCell>
        <mxCell id="L0sxoJ8NojBfWLKHBl2A-75" value="4" style="text;html=1;strokeColor=none;fillColor=none;align=center;verticalAlign=middle;whiteSpace=wrap;rounded=0;" vertex="1" parent="1">
          <mxGeometry x="386" y="534.84" width="40" height="20" as="geometry" />
        </mxCell>
        <mxCell id="L0sxoJ8NojBfWLKHBl2A-76" value="4" style="text;html=1;strokeColor=none;fillColor=none;align=center;verticalAlign=middle;whiteSpace=wrap;rounded=0;" vertex="1" parent="1">
          <mxGeometry x="510" y="540" width="25" height="20" as="geometry" />
        </mxCell>
        <mxCell id="L0sxoJ8NojBfWLKHBl2A-77" value="4" style="text;html=1;strokeColor=none;fillColor=none;align=center;verticalAlign=middle;whiteSpace=wrap;rounded=0;" vertex="1" parent="1">
          <mxGeometry x="502.5" y="650" width="40" height="20" as="geometry" />
        </mxCell>
        <mxCell id="L0sxoJ8NojBfWLKHBl2A-78" value="4" style="text;html=1;strokeColor=none;fillColor=none;align=center;verticalAlign=middle;whiteSpace=wrap;rounded=0;" vertex="1" parent="1">
          <mxGeometry x="277.5" y="650" width="25" height="20" as="geometry" />
        </mxCell>
        <mxCell id="L0sxoJ8NojBfWLKHBl2A-79" value="4" style="text;html=1;strokeColor=none;fillColor=none;align=center;verticalAlign=middle;whiteSpace=wrap;rounded=0;" vertex="1" parent="1">
          <mxGeometry x="154.5" y="647" width="15" height="20" as="geometry" />
        </mxCell>
        <mxCell id="L0sxoJ8NojBfWLKHBl2A-80" value="&lt;font style=&quot;font-size: 14px&quot;&gt;&lt;b&gt;h1&lt;/b&gt;&lt;/font&gt;" style="text;html=1;strokeColor=none;fillColor=none;align=center;verticalAlign=middle;whiteSpace=wrap;rounded=0;" vertex="1" parent="1">
          <mxGeometry x="77.5" y="880" width="40" height="20" as="geometry" />
        </mxCell>
        <mxCell id="L0sxoJ8NojBfWLKHBl2A-81" value="&lt;font style=&quot;font-size: 14px&quot;&gt;&lt;b&gt;h2&lt;/b&gt;&lt;/font&gt;" style="text;html=1;strokeColor=none;fillColor=none;align=center;verticalAlign=middle;whiteSpace=wrap;rounded=0;" vertex="1" parent="1">
          <mxGeometry x="112.5" y="880" width="40" height="20" as="geometry" />
        </mxCell>
        <mxCell id="L0sxoJ8NojBfWLKHBl2A-82" value="&lt;font style=&quot;font-size: 14px&quot;&gt;&lt;b&gt;h3&lt;/b&gt;&lt;/font&gt;" style="text;html=1;strokeColor=none;fillColor=none;align=center;verticalAlign=middle;whiteSpace=wrap;rounded=0;" vertex="1" parent="1">
          <mxGeometry x="142.5" y="880" width="40" height="20" as="geometry" />
        </mxCell>
        <mxCell id="L0sxoJ8NojBfWLKHBl2A-83" value="&lt;font style=&quot;font-size: 14px&quot;&gt;&lt;b&gt;h4&lt;/b&gt;&lt;/font&gt;" style="text;html=1;strokeColor=none;fillColor=none;align=center;verticalAlign=middle;whiteSpace=wrap;rounded=0;" vertex="1" parent="1">
          <mxGeometry x="172.5" y="880" width="40" height="20" as="geometry" />
        </mxCell>
        <mxCell id="L0sxoJ8NojBfWLKHBl2A-84" value="&lt;font style=&quot;font-size: 14px&quot;&gt;&lt;b&gt;h5&lt;/b&gt;&lt;/font&gt;" style="text;html=1;strokeColor=none;fillColor=none;align=center;verticalAlign=middle;whiteSpace=wrap;rounded=0;" vertex="1" parent="1">
          <mxGeometry x="212.5" y="880" width="40" height="20" as="geometry" />
        </mxCell>
        <mxCell id="L0sxoJ8NojBfWLKHBl2A-85" value="&lt;font style=&quot;font-size: 14px&quot;&gt;&lt;b&gt;h6&lt;/b&gt;&lt;/font&gt;" style="text;html=1;strokeColor=none;fillColor=none;align=center;verticalAlign=middle;whiteSpace=wrap;rounded=0;" vertex="1" parent="1">
          <mxGeometry x="242.5" y="880" width="40" height="20" as="geometry" />
        </mxCell>
        <mxCell id="L0sxoJ8NojBfWLKHBl2A-86" value="&lt;font style=&quot;font-size: 14px&quot;&gt;&lt;b&gt;h7&lt;/b&gt;&lt;/font&gt;" style="text;html=1;strokeColor=none;fillColor=none;align=center;verticalAlign=middle;whiteSpace=wrap;rounded=0;" vertex="1" parent="1">
          <mxGeometry x="272.5" y="880" width="40" height="20" as="geometry" />
        </mxCell>
        <mxCell id="L0sxoJ8NojBfWLKHBl2A-87" value="&lt;font style=&quot;font-size: 14px&quot;&gt;&lt;b&gt;h8&lt;/b&gt;&lt;/font&gt;" style="text;html=1;strokeColor=none;fillColor=none;align=center;verticalAlign=middle;whiteSpace=wrap;rounded=0;" vertex="1" parent="1">
          <mxGeometry x="302.5" y="880" width="40" height="20" as="geometry" />
        </mxCell>
        <mxCell id="L0sxoJ8NojBfWLKHBl2A-88" value="&lt;font style=&quot;font-size: 14px&quot;&gt;&lt;b&gt;h9&lt;/b&gt;&lt;/font&gt;" style="text;html=1;strokeColor=none;fillColor=none;align=center;verticalAlign=middle;whiteSpace=wrap;rounded=0;" vertex="1" parent="1">
          <mxGeometry x="332.5" y="880" width="40" height="20" as="geometry" />
        </mxCell>
        <mxCell id="L0sxoJ8NojBfWLKHBl2A-89" value="&lt;font style=&quot;font-size: 14px&quot;&gt;&lt;b&gt;h10&lt;/b&gt;&lt;/font&gt;" style="text;html=1;strokeColor=none;fillColor=none;align=center;verticalAlign=middle;whiteSpace=wrap;rounded=0;" vertex="1" parent="1">
          <mxGeometry x="361.5" y="880" width="40" height="20" as="geometry" />
        </mxCell>
        <mxCell id="L0sxoJ8NojBfWLKHBl2A-90" value="&lt;font style=&quot;font-size: 14px&quot;&gt;&lt;b&gt;h11&lt;/b&gt;&lt;/font&gt;" style="text;html=1;strokeColor=none;fillColor=none;align=center;verticalAlign=middle;whiteSpace=wrap;rounded=0;" vertex="1" parent="1">
          <mxGeometry x="392.5" y="880" width="40" height="20" as="geometry" />
        </mxCell>
        <mxCell id="L0sxoJ8NojBfWLKHBl2A-91" value="&lt;font style=&quot;font-size: 14px&quot;&gt;&lt;b&gt;h12&lt;/b&gt;&lt;/font&gt;" style="text;html=1;strokeColor=none;fillColor=none;align=center;verticalAlign=middle;whiteSpace=wrap;rounded=0;" vertex="1" parent="1">
          <mxGeometry x="422.5" y="880" width="40" height="20" as="geometry" />
        </mxCell>
        <mxCell id="L0sxoJ8NojBfWLKHBl2A-92" value="&lt;font style=&quot;font-size: 14px&quot;&gt;&lt;b&gt;h13&lt;/b&gt;&lt;/font&gt;" style="text;html=1;strokeColor=none;fillColor=none;align=center;verticalAlign=middle;whiteSpace=wrap;rounded=0;" vertex="1" parent="1">
          <mxGeometry x="452.5" y="880" width="40" height="20" as="geometry" />
        </mxCell>
        <mxCell id="L0sxoJ8NojBfWLKHBl2A-93" value="&lt;font style=&quot;font-size: 14px&quot;&gt;&lt;b&gt;h14&lt;/b&gt;&lt;/font&gt;" style="text;html=1;strokeColor=none;fillColor=none;align=center;verticalAlign=middle;whiteSpace=wrap;rounded=0;" vertex="1" parent="1">
          <mxGeometry x="482.5" y="880" width="40" height="20" as="geometry" />
        </mxCell>
        <mxCell id="L0sxoJ8NojBfWLKHBl2A-94" value="&lt;font style=&quot;font-size: 14px&quot;&gt;&lt;b&gt;h15&lt;/b&gt;&lt;/font&gt;" style="text;html=1;strokeColor=none;fillColor=none;align=center;verticalAlign=middle;whiteSpace=wrap;rounded=0;" vertex="1" parent="1">
          <mxGeometry x="510" y="880" width="40" height="20" as="geometry" />
        </mxCell>
        <mxCell id="L0sxoJ8NojBfWLKHBl2A-95" value="&lt;font style=&quot;font-size: 14px&quot;&gt;&lt;b&gt;h16&lt;/b&gt;&lt;/font&gt;" style="text;html=1;strokeColor=none;fillColor=none;align=center;verticalAlign=middle;whiteSpace=wrap;rounded=0;" vertex="1" parent="1">
          <mxGeometry x="542.5" y="880" width="40" height="20" as="geometry" />
        </mxCell>
        <mxCell id="L0sxoJ8NojBfWLKHBl2A-98" value="" style="shape=cube;whiteSpace=wrap;html=1;boundedLbl=1;backgroundOutline=1;darkOpacity=0.05;darkOpacity2=0.1;" vertex="1" parent="1">
          <mxGeometry x="532.5" y="820" width="40" height="60" as="geometry" />
        </mxCell>
        <mxCell id="L0sxoJ8NojBfWLKHBl2A-99" value="" style="shape=cube;whiteSpace=wrap;html=1;boundedLbl=1;backgroundOutline=1;darkOpacity=0.05;darkOpacity2=0.1;" vertex="1" parent="1">
          <mxGeometry x="502.5" y="820" width="40" height="60" as="geometry" />
        </mxCell>
        <mxCell id="L0sxoJ8NojBfWLKHBl2A-100" value="" style="shape=cube;whiteSpace=wrap;html=1;boundedLbl=1;backgroundOutline=1;darkOpacity=0.05;darkOpacity2=0.1;" vertex="1" parent="1">
          <mxGeometry x="472.5" y="820" width="40" height="60" as="geometry" />
        </mxCell>
        <mxCell id="L0sxoJ8NojBfWLKHBl2A-101" value="" style="shape=cube;whiteSpace=wrap;html=1;boundedLbl=1;backgroundOutline=1;darkOpacity=0.05;darkOpacity2=0.1;" vertex="1" parent="1">
          <mxGeometry x="442.5" y="820" width="40" height="60" as="geometry" />
        </mxCell>
        <mxCell id="L0sxoJ8NojBfWLKHBl2A-102" value="" style="shape=cube;whiteSpace=wrap;html=1;boundedLbl=1;backgroundOutline=1;darkOpacity=0.05;darkOpacity2=0.1;" vertex="1" parent="1">
          <mxGeometry x="412.5" y="820" width="40" height="60" as="geometry" />
        </mxCell>
        <mxCell id="L0sxoJ8NojBfWLKHBl2A-103" value="" style="shape=cube;whiteSpace=wrap;html=1;boundedLbl=1;backgroundOutline=1;darkOpacity=0.05;darkOpacity2=0.1;" vertex="1" parent="1">
          <mxGeometry x="382.5" y="820" width="40" height="60" as="geometry" />
        </mxCell>
        <mxCell id="L0sxoJ8NojBfWLKHBl2A-104" value="" style="shape=cube;whiteSpace=wrap;html=1;boundedLbl=1;backgroundOutline=1;darkOpacity=0.05;darkOpacity2=0.1;" vertex="1" parent="1">
          <mxGeometry x="352.5" y="820" width="40" height="60" as="geometry" />
        </mxCell>
        <mxCell id="L0sxoJ8NojBfWLKHBl2A-105" value="" style="shape=cube;whiteSpace=wrap;html=1;boundedLbl=1;backgroundOutline=1;darkOpacity=0.05;darkOpacity2=0.1;" vertex="1" parent="1">
          <mxGeometry x="322.5" y="820" width="40" height="60" as="geometry" />
        </mxCell>
        <mxCell id="L0sxoJ8NojBfWLKHBl2A-106" value="" style="shape=cube;whiteSpace=wrap;html=1;boundedLbl=1;backgroundOutline=1;darkOpacity=0.05;darkOpacity2=0.1;" vertex="1" parent="1">
          <mxGeometry x="292.5" y="820" width="40" height="60" as="geometry" />
        </mxCell>
        <mxCell id="L0sxoJ8NojBfWLKHBl2A-107" value="" style="shape=cube;whiteSpace=wrap;html=1;boundedLbl=1;backgroundOutline=1;darkOpacity=0.05;darkOpacity2=0.1;" vertex="1" parent="1">
          <mxGeometry x="262.5" y="820" width="40" height="60" as="geometry" />
        </mxCell>
        <mxCell id="L0sxoJ8NojBfWLKHBl2A-108" value="" style="shape=cube;whiteSpace=wrap;html=1;boundedLbl=1;backgroundOutline=1;darkOpacity=0.05;darkOpacity2=0.1;" vertex="1" parent="1">
          <mxGeometry x="232.5" y="820" width="40" height="60" as="geometry" />
        </mxCell>
        <mxCell id="L0sxoJ8NojBfWLKHBl2A-109" value="" style="shape=cube;whiteSpace=wrap;html=1;boundedLbl=1;backgroundOutline=1;darkOpacity=0.05;darkOpacity2=0.1;" vertex="1" parent="1">
          <mxGeometry x="202.5" y="820" width="40" height="60" as="geometry" />
        </mxCell>
        <mxCell id="L0sxoJ8NojBfWLKHBl2A-110" value="" style="shape=cube;whiteSpace=wrap;html=1;boundedLbl=1;backgroundOutline=1;darkOpacity=0.05;darkOpacity2=0.1;" vertex="1" parent="1">
          <mxGeometry x="167.5" y="820" width="40" height="60" as="geometry" />
        </mxCell>
        <mxCell id="L0sxoJ8NojBfWLKHBl2A-111" value="" style="shape=cube;whiteSpace=wrap;html=1;boundedLbl=1;backgroundOutline=1;darkOpacity=0.05;darkOpacity2=0.1;" vertex="1" parent="1">
          <mxGeometry x="137.5" y="820" width="40" height="60" as="geometry" />
        </mxCell>
        <mxCell id="L0sxoJ8NojBfWLKHBl2A-112" value="" style="shape=cube;whiteSpace=wrap;html=1;boundedLbl=1;backgroundOutline=1;darkOpacity=0.05;darkOpacity2=0.1;" vertex="1" parent="1">
          <mxGeometry x="107.5" y="820" width="40" height="60" as="geometry" />
        </mxCell>
        <mxCell id="L0sxoJ8NojBfWLKHBl2A-113" value="" style="shape=cube;whiteSpace=wrap;html=1;boundedLbl=1;backgroundOutline=1;darkOpacity=0.05;darkOpacity2=0.1;" vertex="1" parent="1">
          <mxGeometry x="77.5" y="820" width="40" height="60" as="geometry" />
        </mxCell>
        <mxCell id="L0sxoJ8NojBfWLKHBl2A-116" value="" style="endArrow=none;html=1;entryX=0;entryY=0;entryDx=10;entryDy=50;entryPerimeter=0;" edge="1" parent="1" target="L0sxoJ8NojBfWLKHBl2A-32">
          <mxGeometry width="50" height="50" relative="1" as="geometry">
            <mxPoint x="88" y="820" as="sourcePoint" />
            <mxPoint x="135" y="770" as="targetPoint" />
          </mxGeometry>
        </mxCell>
        <mxCell id="L0sxoJ8NojBfWLKHBl2A-123" value="" style="endArrow=none;html=1;entryX=0;entryY=0;entryDx=10;entryDy=50;entryPerimeter=0;" edge="1" parent="1">
          <mxGeometry width="50" height="50" relative="1" as="geometry">
            <mxPoint x="129" y="823" as="sourcePoint" />
            <mxPoint x="128.5" y="793" as="targetPoint" />
          </mxGeometry>
        </mxCell>
        <mxCell id="L0sxoJ8NojBfWLKHBl2A-124" value="交换机s9-s24：&lt;br&gt;端口1和level1交换机相连，&lt;br&gt;端口2和level2交换机相连，&lt;br&gt;端口3和下面的服务器相连" style="text;html=1;strokeColor=none;fillColor=none;align=left;verticalAlign=middle;whiteSpace=wrap;rounded=0;" vertex="1" parent="1">
          <mxGeometry x="590" y="735" width="180" height="70" as="geometry" />
        </mxCell>
        <mxCell id="L0sxoJ8NojBfWLKHBl2A-126" value="&lt;span style=&quot;color: rgb(0 , 0 , 0) ; font-family: &amp;#34;helvetica&amp;#34; ; font-size: 12px ; font-style: normal ; font-weight: 400 ; letter-spacing: normal ; text-align: left ; text-indent: 0px ; text-transform: none ; word-spacing: 0px ; background-color: rgb(248 , 249 , 250) ; display: inline ; float: none&quot;&gt;level1交换机s1-s4&lt;/span&gt;" style="text;whiteSpace=wrap;html=1;" vertex="1" parent="1">
          <mxGeometry x="590" y="628.33" width="120" height="30" as="geometry" />
        </mxCell>
        <mxCell id="L0sxoJ8NojBfWLKHBl2A-127" value="&lt;span style=&quot;color: rgb(0 , 0 , 0) ; font-family: &amp;#34;helvetica&amp;#34; ; font-size: 12px ; font-style: normal ; font-weight: 400 ; letter-spacing: normal ; text-align: left ; text-indent: 0px ; text-transform: none ; word-spacing: 0px ; background-color: rgb(248 , 249 , 250) ; display: inline ; float: none&quot;&gt;level1交换机s5-s8&lt;/span&gt;" style="text;whiteSpace=wrap;html=1;" vertex="1" parent="1">
          <mxGeometry x="590" y="524.84" width="120" height="30" as="geometry" />
        </mxCell>
      </root>
    </mxGraphModel>
  </diagram>
</mxfile>
